%FSTAX44Y44*%
%MOMM*%
%SFA1B1*%

%IPPOS*%
%ADD10C,0.220000*%
%ADD11C,0.250000*%
%ADD12C,0.200000*%
%ADD13C,0.253999*%
%ADD14C,0.399999*%
%LNpcb1-1*%
%LPD*%
G36*
X01171003Y00536433D02*
X0117107D01*
Y00536399*
Y00536366*
X01171104*
Y00536333*
Y00536299*
Y00536266*
Y00536233*
X01171137*
Y00536199*
Y00536166*
Y00536133*
Y00536099*
Y00536067*
Y00536033*
X0117117*
Y00535999*
Y00535966*
Y00535933*
Y00535899*
Y00535866*
X01171204*
Y00535833*
Y00535799*
Y00535766*
Y00535732*
Y00535699*
X01171237*
Y00535666*
Y00535633*
Y00535599*
Y00535566*
Y00535532*
Y00535499*
X0117127*
Y00535466*
Y00535433*
Y00535399*
Y00535366*
Y00535333*
X01171303*
Y00535299*
Y00535266*
Y00535232*
Y00535199*
Y00535166*
X01171337*
Y00535133*
Y00535099*
Y00535066*
Y00535032*
Y00534999*
Y00534966*
X0117137*
Y00534932*
Y00534899*
Y00534866*
Y00534832*
Y00534799*
X01171403*
Y00534766*
Y00534732*
Y00534699*
Y00534666*
Y00534632*
Y00534599*
X01171437*
Y00534566*
Y00534532*
Y00534499*
Y00534466*
Y00534432*
X0117147*
Y00534399*
Y00534366*
Y00534332*
Y00534299*
Y00534266*
X01171504*
Y00534232*
Y00534199*
Y00534166*
Y00534132*
Y00534099*
Y00534066*
X01171537*
Y00534032*
Y00533999*
Y00533966*
Y00533932*
Y00533899*
X0117157*
Y00533866*
Y00533832*
Y00533799*
X01171604*
Y00533766*
X01171637*
Y00533732*
X0117167*
Y00533699*
X0117177*
Y00533666*
X01171837*
Y00533632*
X01171904*
Y00533599*
X01172004*
Y00533566*
X0117207*
Y00533532*
X0117217*
Y00533499*
X01172237*
Y00533466*
X01172337*
Y00533432*
X01172404*
Y005334*
X01172504*
Y00533366*
X0117257*
Y00533332*
X01172637*
Y00533299*
X01172737*
Y00533266*
X01172804*
Y00533232*
X01172904*
Y00533199*
X0117297*
Y00533166*
X0117307*
Y00533132*
X01173137*
Y00533099*
X01173237*
Y00533065*
X01173304*
Y00533032*
X01173404*
Y00532999*
X0117347*
Y00533032*
X0117357*
Y00533065*
X01173604*
Y00533099*
X0117367*
Y00533132*
X01173704*
Y00533166*
X01173771*
Y00533199*
X01173804*
Y00533232*
X01173871*
Y00533266*
X01173904*
Y00533299*
X0117397*
Y00533332*
X01174004*
Y00533366*
X01174071*
Y005334*
X01174104*
Y00533432*
X01174137*
Y00533466*
X01174204*
Y00533499*
X01174237*
Y00533532*
X01174304*
Y00533566*
X01174337*
Y00533599*
X01174404*
Y00533632*
X01174437*
Y00533666*
X01174504*
Y00533699*
X01174537*
Y00533732*
X01174604*
Y00533766*
X01174637*
Y00533799*
X01174671*
Y00533832*
X01174737*
Y00533866*
X01174771*
Y00533899*
X01174837*
Y00533932*
X01174871*
Y00533966*
X01174937*
Y00533999*
X01174971*
Y00534032*
X01175037*
Y00534066*
X01175071*
Y00534099*
X01175137*
Y00534132*
X01175171*
Y00534166*
X01175204*
Y00534199*
X01175271*
Y00534232*
X01175304*
Y00534266*
X01175371*
Y00534299*
X01175404*
Y00534332*
X01175471*
Y00534366*
X01175504*
Y00534399*
X01175571*
Y00534432*
X01175604*
Y00534466*
X01175671*
Y00534499*
X01175771*
Y00534466*
X01175804*
Y00534432*
X01175871*
Y00534399*
X01175904*
Y00534366*
X01175937*
Y00534332*
X01175971*
Y00534299*
X01176004*
Y00534266*
X01176037*
Y00534232*
X01176071*
Y00534199*
X01176104*
Y00534166*
X01176137*
Y00534132*
X01176171*
Y00534099*
X01176204*
Y00534066*
X01176237*
Y00534032*
X01176271*
Y00533999*
X01176304*
Y00533966*
X01176338*
Y00533932*
X01176371*
Y00533899*
X01176404*
Y00533866*
X01176438*
Y00533832*
X01176471*
Y00533799*
X01176504*
Y00533766*
X01176537*
Y00533732*
X01176571*
Y00533699*
X01176604*
Y00533666*
X01176637*
Y00533632*
X01176671*
Y00533599*
X01176704*
Y00533566*
X01176738*
Y00533532*
X01176771*
Y00533499*
X01176804*
Y00533466*
X01176838*
Y00533432*
X01176871*
Y005334*
X01176904*
Y00533366*
X01176937*
Y00533332*
X01176971*
Y00533299*
X01177004*
Y00533266*
X01177037*
Y00533232*
X01177071*
Y00533199*
X01177104*
Y00533166*
X01177138*
Y00533132*
X01177171*
Y00533099*
X01177204*
Y00533065*
X01177238*
Y00533032*
X01177271*
Y00532999*
X01177304*
Y00532965*
X01177338*
Y00532932*
X01177371*
Y00532899*
X01177404*
Y00532866*
X01177438*
Y00532832*
X01177471*
Y00532799*
X01177504*
Y00532765*
X01177538*
Y00532732*
X01177571*
Y00532699*
Y00532666*
X01177604*
Y00532632*
Y00532599*
Y00532565*
Y00532532*
X01177571*
Y00532499*
Y00532466*
X01177538*
Y00532432*
X01177504*
Y00532399*
Y00532365*
X01177471*
Y00532332*
X01177438*
Y00532299*
X01177404*
Y00532265*
Y00532232*
X01177371*
Y00532199*
X01177338*
Y00532165*
Y00532132*
X01177304*
Y00532099*
X01177271*
Y00532065*
Y00532032*
X01177238*
Y00531999*
X01177204*
Y00531965*
Y00531932*
X01177171*
Y00531899*
X01177138*
Y00531865*
Y00531832*
X01177104*
Y00531799*
X01177071*
Y00531765*
X01177037*
Y00531732*
Y00531699*
X01177004*
Y00531665*
X01176971*
Y00531632*
Y00531599*
X01176937*
Y00531565*
X01176904*
Y00531532*
Y00531499*
X01176871*
Y00531465*
X01176838*
Y00531432*
Y00531399*
X01176804*
Y00531365*
X01176771*
Y00531332*
Y00531299*
X01176738*
Y00531265*
X01176704*
Y00531232*
Y00531199*
X01176671*
Y00531165*
X01176637*
Y00531132*
X01176604*
Y00531099*
Y00531065*
X01176571*
Y00531032*
X01176537*
Y00530999*
Y00530965*
X01176504*
Y00530932*
X01176471*
Y00530899*
Y00530865*
X01176438*
Y00530832*
X01176404*
Y00530799*
Y00530765*
X01176371*
Y00530733*
X01176338*
Y00530699*
Y00530665*
X01176304*
Y00530632*
X01176271*
Y00530599*
X01176237*
Y00530565*
Y00530532*
X01176204*
Y00530498*
X01176171*
Y00530465*
Y00530432*
Y00530399*
X01176137*
Y00530365*
X01176171*
Y00530332*
Y00530298*
Y00530265*
Y00530232*
X01176204*
Y00530199*
Y00530165*
X01176237*
Y00530132*
Y00530098*
Y00530065*
X01176271*
Y00530032*
Y00529999*
X01176304*
Y00529965*
Y00529932*
X01176338*
Y00529898*
Y00529865*
Y00529832*
X01176371*
Y00529798*
Y00529765*
X01176404*
Y00529732*
Y00529698*
X01176438*
Y00529665*
Y00529632*
Y00529598*
X01176471*
Y00529565*
Y00529532*
X01176504*
Y00529498*
Y00529465*
X01176537*
Y00529432*
Y00529398*
Y00529365*
X01176571*
Y00529332*
Y00529298*
X01176604*
Y00529265*
Y00529232*
X01176637*
Y00529198*
Y00529165*
Y00529132*
X01176671*
Y00529098*
Y00529065*
X01176704*
Y00529032*
Y00528998*
X01176738*
Y00528965*
Y00528932*
Y00528898*
X01176771*
Y00528865*
Y00528832*
X01176804*
Y00528798*
Y00528765*
X01176838*
Y00528732*
Y00528698*
Y00528665*
X01176871*
Y00528632*
Y00528598*
X01176904*
Y00528565*
Y00528532*
X01176937*
Y00528498*
X01176971*
Y00528465*
X01177004*
Y00528432*
X01177138*
Y00528398*
X01177304*
Y00528365*
X01177471*
Y00528332*
X01177671*
Y00528298*
X01177838*
Y00528265*
X01178004*
Y00528232*
X01178204*
Y00528198*
X01178371*
Y00528165*
X01178571*
Y00528132*
X01178738*
Y00528098*
X01178904*
Y00528066*
X01179105*
Y00528032*
X01179271*
Y00527998*
X01179438*
Y00527965*
X01179538*
Y00527932*
X01179571*
Y00527898*
Y00527865*
Y00527831*
Y00527798*
Y00527765*
Y00527732*
Y00527698*
Y00527665*
Y00527631*
Y00527598*
Y00527565*
Y00527532*
Y00527498*
Y00527465*
Y00527432*
Y00527398*
Y00527365*
Y00527331*
Y00527298*
Y00527265*
Y00527232*
Y00527198*
Y00527165*
Y00527131*
Y00527098*
Y00527065*
Y00527031*
Y00526998*
Y00526965*
Y00526931*
Y00526898*
Y00526865*
Y00526831*
Y00526798*
Y00526765*
Y00526731*
Y00526698*
Y00526665*
Y00526631*
Y00526598*
Y00526565*
Y00526531*
Y00526498*
Y00526465*
Y00526431*
Y00526398*
Y00526365*
Y00526331*
Y00526298*
Y00526265*
Y00526231*
Y00526198*
Y00526165*
Y00526131*
Y00526098*
Y00526065*
Y00526031*
Y00525998*
Y00525965*
Y00525931*
Y00525898*
Y00525865*
Y00525831*
Y00525798*
Y00525765*
Y00525731*
Y00525698*
Y00525665*
Y00525631*
Y00525598*
Y00525565*
Y00525531*
Y00525498*
Y00525465*
Y00525431*
Y00525399*
Y00525365*
Y00525331*
Y00525298*
X01179538*
Y00525265*
X01179504*
Y00525231*
X01179405*
Y00525198*
X01179238*
Y00525164*
X01179038*
Y00525131*
X01178871*
Y00525098*
X01178704*
Y00525064*
X01178504*
Y00525031*
X01178338*
Y00524998*
X01178171*
Y00524965*
X01177971*
Y00524931*
X01177804*
Y00524898*
X01177604*
Y00524864*
X01177438*
Y00524831*
X01177271*
Y00524798*
X01177104*
Y00524765*
X01177037*
Y00524731*
X01177004*
Y00524698*
X01176971*
Y00524664*
Y00524631*
X01176937*
Y00524598*
Y00524565*
Y00524531*
X01176904*
Y00524498*
Y00524464*
X01176871*
Y00524431*
Y00524398*
Y00524364*
X01176838*
Y00524331*
Y00524298*
X01176804*
Y00524264*
Y00524231*
Y00524198*
X01176771*
Y00524164*
Y00524131*
X01176738*
Y00524098*
Y00524064*
Y00524031*
X01176704*
Y00523998*
Y00523964*
X01176671*
Y00523931*
Y00523898*
Y00523864*
X01176637*
Y00523831*
Y00523798*
X01176604*
Y00523764*
Y00523731*
Y00523698*
X01176571*
Y00523664*
Y00523631*
X01176537*
Y00523598*
Y00523564*
Y00523531*
X01176504*
Y00523498*
Y00523464*
X01176471*
Y00523431*
Y00523398*
Y00523364*
X01176438*
Y00523331*
Y00523298*
X01176404*
Y00523264*
Y00523231*
Y00523198*
X01176371*
Y00523164*
Y00523131*
X01176338*
Y00523098*
Y00523064*
Y00523031*
X01176304*
Y00522998*
Y00522964*
X01176271*
Y00522931*
Y00522898*
Y00522864*
X01176237*
Y00522831*
Y00522798*
Y00522764*
Y00522732*
Y00522698*
Y00522664*
Y00522631*
X01176271*
Y00522598*
Y00522564*
X01176304*
Y00522531*
X01176338*
Y00522498*
Y00522464*
X01176371*
Y00522431*
X01176404*
Y00522397*
Y00522364*
X01176438*
Y00522331*
X01176471*
Y00522298*
X01176504*
Y00522264*
Y00522231*
X01176537*
Y00522197*
X01176571*
Y00522164*
Y00522131*
X01176604*
Y00522098*
X01176637*
Y00522064*
Y00522031*
X01176671*
Y00521997*
X01176704*
Y00521964*
Y00521931*
X01176738*
Y00521897*
X01176771*
Y00521864*
Y00521831*
X01176804*
Y00521798*
X01176838*
Y00521764*
Y00521731*
X01176871*
Y00521697*
X01176904*
Y00521664*
X01176937*
Y00521631*
Y00521597*
X01176971*
Y00521564*
X01177004*
Y00521531*
Y00521497*
X01177037*
Y00521464*
X01177071*
Y00521431*
Y00521397*
X01177104*
Y00521364*
X01177138*
Y00521331*
Y00521297*
X01177171*
Y00521264*
X01177204*
Y00521231*
Y00521197*
X01177238*
Y00521164*
X01177271*
Y00521131*
X01177304*
Y00521097*
Y00521064*
X01177338*
Y00521031*
X01177371*
Y00520997*
Y00520964*
X01177404*
Y00520931*
X01177438*
Y00520897*
Y00520864*
X01177471*
Y00520831*
X01177504*
Y00520797*
Y00520764*
X01177538*
Y00520731*
X01177571*
Y00520697*
Y00520664*
X01177604*
Y00520631*
Y00520597*
Y00520564*
Y00520531*
X01177571*
Y00520497*
X01177538*
Y00520464*
X01177504*
Y00520431*
X01177471*
Y00520397*
X01177438*
Y00520364*
X01177404*
Y00520331*
X01177371*
Y00520297*
X01177338*
Y00520264*
X01177304*
Y00520231*
X01177271*
Y00520197*
X01177238*
Y00520164*
X01177204*
Y00520131*
X01177171*
Y00520097*
X01177138*
Y00520065*
X01177104*
Y00520031*
X01177071*
Y00519997*
X01177037*
Y00519964*
X01177004*
Y00519931*
X01176971*
Y00519897*
X01176937*
Y00519864*
X01176904*
Y00519831*
X01176871*
Y00519797*
X01176838*
Y00519764*
X01176804*
Y0051973*
X01176771*
Y00519697*
X01176738*
Y00519664*
X01176704*
Y00519631*
X01176671*
Y00519597*
X01176637*
Y00519564*
X01176604*
Y00519531*
X01176571*
Y00519497*
X01176537*
Y00519464*
X01176504*
Y0051943*
X01176471*
Y00519397*
X01176438*
Y00519364*
X01176404*
Y00519331*
X01176371*
Y00519297*
X01176338*
Y00519264*
X01176304*
Y0051923*
X01176271*
Y00519197*
X01176237*
Y00519164*
X01176204*
Y00519131*
X01176171*
Y00519097*
X01176137*
Y00519064*
X01176104*
Y0051903*
X01176071*
Y00518997*
X01176037*
Y00518964*
X01176004*
Y0051893*
X01175971*
Y00518897*
X01175937*
Y00518864*
X01175904*
Y0051883*
X01175871*
Y00518797*
X01175837*
Y00518764*
X01175804*
Y0051873*
X01175737*
Y00518697*
X01175704*
Y0051873*
X01175604*
Y00518764*
X01175571*
Y00518797*
X01175537*
Y0051883*
X01175471*
Y00518864*
X01175437*
Y00518897*
X01175371*
Y0051893*
X01175337*
Y00518964*
X01175271*
Y00518997*
X01175237*
Y0051903*
X01175171*
Y00519064*
X01175137*
Y00519097*
X01175071*
Y00519131*
X01175037*
Y00519164*
X01174971*
Y00519197*
X01174937*
Y0051923*
X01174904*
Y00519264*
X01174837*
Y00519297*
X01174804*
Y00519331*
X01174737*
Y00519364*
X01174704*
Y00519397*
X01174637*
Y0051943*
X01174604*
Y00519464*
X01174537*
Y00519497*
X01174504*
Y00519531*
X01174437*
Y00519564*
X01174404*
Y00519597*
X0117437*
Y00519631*
X01174304*
Y00519664*
X0117427*
Y00519697*
X01174204*
Y0051973*
X01174171*
Y00519764*
X01174104*
Y00519797*
X01174071*
Y00519831*
X01174004*
Y00519864*
X0117397*
Y00519897*
X01173904*
Y00519931*
X01173871*
Y00519964*
X01173837*
Y00519997*
X01173771*
Y00520031*
X01173737*
Y00520065*
X01173537*
Y00520031*
X0117347*
Y00519997*
X01173404*
Y00519964*
X01173337*
Y00519931*
X0117327*
Y00519897*
X01173204*
Y00519864*
X01173137*
Y00519831*
X01173104*
Y00519797*
X01173037*
Y00519764*
X0117297*
Y0051973*
X01172904*
Y00519697*
X01172837*
Y00519664*
X0117277*
Y00519631*
X01172704*
Y00519597*
X0117257*
Y00519631*
Y00519664*
X01172537*
Y00519697*
Y0051973*
X01172504*
Y00519764*
Y00519797*
Y00519831*
X0117247*
Y00519864*
Y00519897*
X01172437*
Y00519931*
Y00519964*
X01172404*
Y00519997*
Y00520031*
Y00520065*
X0117237*
Y00520097*
Y00520131*
X01172337*
Y00520164*
Y00520197*
Y00520231*
X01172304*
Y00520264*
Y00520297*
X0117227*
Y00520331*
Y00520364*
X01172237*
Y00520397*
Y00520431*
Y00520464*
X01172204*
Y00520497*
Y00520531*
X0117217*
Y00520564*
Y00520597*
Y00520631*
X01172137*
Y00520664*
Y00520697*
X01172104*
Y00520731*
Y00520764*
Y00520797*
X0117207*
Y00520831*
Y00520864*
X01172037*
Y00520897*
Y00520931*
X01172004*
Y00520964*
Y00520997*
Y00521031*
X0117197*
Y00521064*
Y00521097*
X01171937*
Y00521131*
Y00521164*
Y00521197*
X01171904*
Y00521231*
Y00521264*
X0117187*
Y00521297*
Y00521331*
X01171837*
Y00521364*
Y00521397*
Y00521431*
X01171804*
Y00521464*
Y00521497*
X0117177*
Y00521531*
Y00521564*
Y00521597*
X01171737*
Y00521631*
Y00521664*
X01171703*
Y00521697*
Y00521731*
Y00521764*
X0117167*
Y00521798*
Y00521831*
X01171637*
Y00521864*
Y00521897*
X01171604*
Y00521931*
Y00521964*
Y00521997*
X0117157*
Y00522031*
Y00522064*
X01171537*
Y00522098*
Y00522131*
Y00522164*
X01171504*
Y00522197*
Y00522231*
X0117147*
Y00522264*
Y00522298*
X01171437*
Y00522331*
Y00522364*
Y00522397*
X01171403*
Y00522431*
Y00522464*
X0117137*
Y00522498*
Y00522531*
Y00522564*
X01171337*
Y00522598*
Y00522631*
X01171303*
Y00522664*
Y00522698*
Y00522732*
X0117127*
Y00522764*
Y00522798*
X01171237*
Y00522831*
Y00522864*
X01171204*
Y00522898*
Y00522931*
Y00522964*
X0117117*
Y00522998*
Y00523031*
X01171137*
Y00523064*
Y00523098*
Y00523131*
X01171104*
Y00523164*
Y00523198*
X0117107*
Y00523231*
Y00523264*
X01171037*
Y00523298*
Y00523331*
Y00523364*
X01171003*
Y00523398*
Y00523431*
X0117097*
Y00523464*
Y00523498*
Y00523531*
X01170937*
Y00523564*
Y00523598*
X01170903*
Y00523631*
Y00523664*
X0117087*
Y00523698*
Y00523731*
Y00523764*
X01170837*
Y00523798*
Y00523831*
X01170803*
Y00523864*
Y00523898*
Y00523931*
Y00523964*
Y00523998*
X01170837*
Y00524031*
X0117087*
Y00524064*
X01170937*
Y00524098*
X01171003*
Y00524131*
X01171037*
Y00524164*
X01171104*
Y00524198*
X01171137*
Y00524231*
X0117117*
Y00524264*
X01171237*
Y00524298*
X0117127*
Y00524331*
X01171303*
Y00524364*
X0117137*
Y00524398*
X01171403*
Y00524431*
X0117147*
Y00524464*
X01171504*
Y00524498*
X01171537*
Y00524531*
X0117157*
Y00524565*
X01171604*
Y00524598*
X01171637*
Y00524631*
X0117167*
Y00524664*
X01171703*
Y00524698*
X01171737*
Y00524731*
X0117177*
Y00524765*
X01171804*
Y00524798*
X01171837*
Y00524831*
Y00524864*
X0117187*
Y00524898*
X01171904*
Y00524931*
X01171937*
Y00524965*
X0117197*
Y00524998*
Y00525031*
X01172004*
Y00525064*
X01172037*
Y00525098*
Y00525131*
X0117207*
Y00525164*
Y00525198*
X01172104*
Y00525231*
X01172137*
Y00525265*
Y00525298*
X0117217*
Y00525331*
Y00525365*
X01172204*
Y00525399*
Y00525431*
X01172237*
Y00525465*
Y00525498*
X0117227*
Y00525531*
Y00525565*
Y00525598*
X01172304*
Y00525631*
Y00525665*
Y00525698*
X01172337*
Y00525731*
Y00525765*
Y00525798*
X0117237*
Y00525831*
Y00525865*
Y00525898*
X01172404*
Y00525931*
Y00525965*
Y00525998*
Y00526031*
Y00526065*
X01172437*
Y00526098*
Y00526131*
Y00526165*
Y00526198*
Y00526231*
X0117247*
Y00526265*
Y00526298*
Y00526331*
Y00526365*
Y00526398*
Y00526431*
Y00526465*
Y00526498*
Y00526531*
Y00526565*
Y00526598*
Y00526631*
Y00526665*
Y00526698*
Y00526731*
Y00526765*
Y00526798*
Y00526831*
Y00526865*
Y00526898*
Y00526931*
X01172437*
Y00526965*
Y00526998*
Y00527031*
Y00527065*
Y00527098*
Y00527131*
X01172404*
Y00527165*
Y00527198*
Y00527232*
Y00527265*
X0117237*
Y00527298*
Y00527331*
Y00527365*
Y00527398*
X01172337*
Y00527432*
Y00527465*
Y00527498*
X01172304*
Y00527532*
Y00527565*
Y00527598*
X0117227*
Y00527631*
Y00527665*
X01172237*
Y00527698*
Y00527732*
X01172204*
Y00527765*
Y00527798*
X0117217*
Y00527831*
Y00527865*
X01172137*
Y00527898*
Y00527932*
X01172104*
Y00527965*
Y00527998*
X0117207*
Y00528032*
Y00528066*
X01172037*
Y00528098*
X01172004*
Y00528132*
Y00528165*
X0117197*
Y00528198*
X01171937*
Y00528232*
X01171904*
Y00528265*
Y00528298*
X0117187*
Y00528332*
X01171837*
Y00528365*
X01171804*
Y00528398*
X0117177*
Y00528432*
X01171737*
Y00528465*
X01171703*
Y00528498*
Y00528532*
X0117167*
Y00528565*
X01171604*
Y00528598*
X0117157*
Y00528632*
X01171537*
Y00528665*
X01171504*
Y00528698*
X0117147*
Y00528732*
X01171437*
Y00528765*
X0117137*
Y00528798*
X01171337*
Y00528832*
X01171303*
Y00528865*
X01171237*
Y00528898*
X01171204*
Y00528932*
X01171137*
Y00528965*
X0117107*
Y00528998*
X01171037*
Y00529032*
X0117097*
Y00529065*
X01170903*
Y00529098*
X01170803*
Y00529132*
X01170737*
Y00529165*
X01170637*
Y00529198*
X0117057*
Y00529232*
X01170437*
Y00529265*
X01170303*
Y00529298*
X01170103*
Y00529332*
X01169337*
Y00529298*
X01169137*
Y00529265*
X01169003*
Y00529232*
X0116887*
Y00529198*
X01168803*
Y00529165*
X01168703*
Y00529132*
X01168636*
Y00529098*
X01168537*
Y00529065*
X0116847*
Y00529032*
X01168403*
Y00528998*
X0116837*
Y00528965*
X01168303*
Y00528932*
X01168236*
Y00528898*
X01168203*
Y00528865*
X01168136*
Y00528832*
X01168103*
Y00528798*
X0116807*
Y00528765*
X01168003*
Y00528732*
X0116797*
Y00528698*
X01167936*
Y00528665*
X01167903*
Y00528632*
X0116787*
Y00528598*
X01167836*
Y00528565*
X0116777*
Y00528532*
X01167736*
Y00528498*
Y00528465*
X01167703*
Y00528432*
X0116767*
Y00528398*
X01167636*
Y00528365*
X01167603*
Y00528332*
X0116757*
Y00528298*
X01167536*
Y00528265*
Y00528232*
X01167503*
Y00528198*
X0116747*
Y00528165*
X01167436*
Y00528132*
Y00528098*
X01167403*
Y00528066*
X0116737*
Y00528032*
Y00527998*
X01167336*
Y00527965*
Y00527932*
X01167303*
Y00527898*
Y00527865*
X0116727*
Y00527831*
Y00527798*
X01167236*
Y00527765*
Y00527732*
X01167203*
Y00527698*
Y00527665*
X0116717*
Y00527631*
Y00527598*
X01167136*
Y00527565*
Y00527532*
Y00527498*
X01167103*
Y00527465*
Y00527432*
Y00527398*
X0116707*
Y00527365*
Y00527331*
Y00527298*
Y00527265*
X01167036*
Y00527232*
Y00527198*
Y00527165*
Y00527131*
X01167003*
Y00527098*
Y00527065*
Y00527031*
Y00526998*
Y00526965*
Y00526931*
X0116697*
Y00526898*
Y00526865*
Y00526831*
Y00526798*
Y00526765*
Y00526731*
Y00526698*
Y00526665*
Y00526631*
Y00526598*
Y00526565*
Y00526531*
Y00526498*
Y00526465*
Y00526431*
Y00526398*
Y00526365*
Y00526331*
Y00526298*
Y00526265*
Y00526231*
X01167003*
Y00526198*
Y00526165*
Y00526131*
Y00526098*
Y00526065*
X01167036*
Y00526031*
Y00525998*
Y00525965*
Y00525931*
Y00525898*
X0116707*
Y00525865*
Y00525831*
Y00525798*
X01167103*
Y00525765*
Y00525731*
Y00525698*
X01167136*
Y00525665*
Y00525631*
Y00525598*
X0116717*
Y00525565*
Y00525531*
Y00525498*
X01167203*
Y00525465*
Y00525431*
X01167236*
Y00525399*
Y00525365*
X0116727*
Y00525331*
Y00525298*
X01167303*
Y00525265*
Y00525231*
X01167336*
Y00525198*
X0116737*
Y00525164*
Y00525131*
X01167403*
Y00525098*
Y00525064*
X01167436*
Y00525031*
X0116747*
Y00524998*
Y00524965*
X01167503*
Y00524931*
X01167536*
Y00524898*
X0116757*
Y00524864*
X01167603*
Y00524831*
Y00524798*
X01167636*
Y00524765*
X0116767*
Y00524731*
X01167703*
Y00524698*
X01167736*
Y00524664*
X0116777*
Y00524631*
X01167803*
Y00524598*
X01167836*
Y00524565*
X0116787*
Y00524531*
X01167903*
Y00524498*
X01167936*
Y00524464*
X0116797*
Y00524431*
X01168036*
Y00524398*
X0116807*
Y00524364*
X01168136*
Y00524331*
X0116817*
Y00524298*
X01168203*
Y00524264*
X0116827*
Y00524231*
X01168303*
Y00524198*
X01168336*
Y00524164*
X01168403*
Y00524131*
X01168437*
Y00524098*
X01168503*
Y00524064*
X0116857*
Y00524031*
X01168603*
Y00523998*
X01168636*
Y00523964*
Y00523931*
Y00523898*
Y00523864*
Y00523831*
X01168603*
Y00523798*
Y00523764*
X0116857*
Y00523731*
Y00523698*
Y00523664*
X01168537*
Y00523631*
Y00523598*
X01168503*
Y00523564*
Y00523531*
X0116847*
Y00523498*
Y00523464*
Y00523431*
X01168437*
Y00523398*
Y00523364*
X01168403*
Y00523331*
Y00523298*
Y00523264*
X0116837*
Y00523231*
Y00523198*
X01168336*
Y00523164*
Y00523131*
X01168303*
Y00523098*
Y00523064*
Y00523031*
X0116827*
Y00522998*
Y00522964*
X01168236*
Y00522931*
Y00522898*
Y00522864*
X01168203*
Y00522831*
Y00522798*
X0116817*
Y00522764*
Y00522732*
X01168136*
Y00522698*
Y00522664*
Y00522631*
X01168103*
Y00522598*
Y00522564*
X0116807*
Y00522531*
Y00522498*
Y00522464*
X01168036*
Y00522431*
Y00522397*
X01168003*
Y00522364*
Y00522331*
Y00522298*
X0116797*
Y00522264*
Y00522231*
X01167936*
Y00522197*
Y00522164*
X01167903*
Y00522131*
Y00522098*
Y00522064*
X0116787*
Y00522031*
Y00521997*
X01167836*
Y00521964*
Y00521931*
Y00521897*
X01167803*
Y00521864*
Y00521831*
X0116777*
Y00521798*
Y00521764*
X01167736*
Y00521731*
Y00521697*
Y00521664*
X01167703*
Y00521631*
Y00521597*
X0116767*
Y00521564*
Y00521531*
Y00521497*
X01167636*
Y00521464*
Y00521431*
X01167603*
Y00521397*
Y00521364*
Y00521331*
X0116757*
Y00521297*
Y00521264*
X01167536*
Y00521231*
Y00521197*
X01167503*
Y00521164*
Y00521131*
Y00521097*
X0116747*
Y00521064*
Y00521031*
X01167436*
Y00520997*
Y00520964*
Y00520931*
X01167403*
Y00520897*
Y00520864*
X0116737*
Y00520831*
Y00520797*
X01167336*
Y00520764*
Y00520731*
Y00520697*
X01167303*
Y00520664*
Y00520631*
X0116727*
Y00520597*
Y00520564*
Y00520531*
X01167236*
Y00520497*
Y00520464*
X01167203*
Y00520431*
Y00520397*
Y00520364*
X0116717*
Y00520331*
Y00520297*
X01167136*
Y00520264*
Y00520231*
X01167103*
Y00520197*
Y00520164*
Y00520131*
X0116707*
Y00520097*
Y00520065*
X01167036*
Y00520031*
Y00519997*
Y00519964*
X01167003*
Y00519931*
Y00519897*
X0116697*
Y00519864*
Y00519831*
X01166936*
Y00519797*
Y00519764*
Y0051973*
X01166903*
Y00519697*
Y00519664*
X0116687*
Y00519631*
Y00519597*
X01166736*
Y00519631*
X0116667*
Y00519664*
X01166603*
Y00519697*
X01166536*
Y0051973*
X0116647*
Y00519764*
X01166403*
Y00519797*
X01166336*
Y00519831*
X01166303*
Y00519864*
X01166236*
Y00519897*
X0116617*
Y00519931*
X01166103*
Y00519964*
X01166036*
Y00519997*
X0116597*
Y00520031*
X01165903*
Y00520065*
X01165703*
Y00520031*
X01165669*
Y00519997*
X01165603*
Y00519964*
X01165569*
Y00519931*
X01165536*
Y00519897*
X01165469*
Y00519864*
X01165436*
Y00519831*
X01165369*
Y00519797*
X01165336*
Y00519764*
X01165269*
Y0051973*
X01165236*
Y00519697*
X01165169*
Y00519664*
X01165136*
Y00519631*
X01165069*
Y00519597*
X01165036*
Y00519564*
X01165003*
Y00519531*
X01164936*
Y00519497*
X01164903*
Y00519464*
X01164836*
Y0051943*
X01164803*
Y00519397*
X01164736*
Y00519364*
X01164703*
Y00519331*
X01164636*
Y00519297*
X01164603*
Y00519264*
X01164536*
Y0051923*
X01164503*
Y00519197*
X01164469*
Y00519164*
X01164403*
Y00519131*
X01164369*
Y00519097*
X01164303*
Y00519064*
X01164269*
Y0051903*
X01164203*
Y00518997*
X01164169*
Y00518964*
X01164103*
Y0051893*
X01164069*
Y00518897*
X01164003*
Y00518864*
X01163969*
Y0051883*
X01163903*
Y00518797*
X01163869*
Y00518764*
X01163836*
Y0051873*
X01163736*
Y00518697*
X01163703*
Y0051873*
X01163636*
Y00518764*
X01163603*
Y00518797*
X01163569*
Y0051883*
X01163536*
Y00518864*
X01163502*
Y00518897*
X01163469*
Y0051893*
X01163436*
Y00518964*
X01163402*
Y00518997*
X01163369*
Y0051903*
X01163336*
Y00519064*
X01163303*
Y00519097*
X01163269*
Y00519131*
X01163236*
Y00519164*
X01163203*
Y00519197*
X01163169*
Y0051923*
X01163136*
Y00519264*
X01163102*
Y00519297*
X01163069*
Y00519331*
X01163036*
Y00519364*
X01163002*
Y00519397*
X01162969*
Y0051943*
X01162936*
Y00519464*
X01162902*
Y00519497*
X01162869*
Y00519531*
X01162836*
Y00519564*
X01162802*
Y00519597*
X01162769*
Y00519631*
X01162736*
Y00519664*
X01162702*
Y00519697*
X01162669*
Y0051973*
X01162636*
Y00519764*
X01162602*
Y00519797*
X01162569*
Y00519831*
X01162536*
Y00519864*
X01162502*
Y00519897*
X01162469*
Y00519931*
X01162436*
Y00519964*
X01162402*
Y00519997*
X01162369*
Y00520031*
X01162336*
Y00520065*
X01162302*
Y00520097*
X01162269*
Y00520131*
X01162236*
Y00520164*
X01162202*
Y00520197*
X01162169*
Y00520231*
X01162136*
Y00520264*
X01162102*
Y00520297*
X01162069*
Y00520331*
X01162036*
Y00520364*
X01162002*
Y00520397*
X01161969*
Y00520431*
X01161936*
Y00520464*
X01161902*
Y00520497*
X01161869*
Y00520531*
X01161836*
Y00520564*
Y00520597*
Y00520631*
Y00520664*
X01161869*
Y00520697*
Y00520731*
X01161902*
Y00520764*
X01161936*
Y00520797*
Y00520831*
X01161969*
Y00520864*
X01162002*
Y00520897*
Y00520931*
X01162036*
Y00520964*
X01162069*
Y00520997*
Y00521031*
X01162102*
Y00521064*
X01162136*
Y00521097*
Y00521131*
X01162169*
Y00521164*
X01162202*
Y00521197*
X01162236*
Y00521231*
Y00521264*
X01162269*
Y00521297*
X01162302*
Y00521331*
Y00521364*
X01162336*
Y00521397*
X01162369*
Y00521431*
Y00521464*
X01162402*
Y00521497*
X01162436*
Y00521531*
Y00521564*
X01162469*
Y00521597*
X01162502*
Y00521631*
Y00521664*
X01162536*
Y00521697*
X01162569*
Y00521731*
X01162602*
Y00521764*
Y00521798*
X01162636*
Y00521831*
X01162669*
Y00521864*
Y00521897*
X01162702*
Y00521931*
X01162736*
Y00521964*
Y00521997*
X01162769*
Y00522031*
X01162802*
Y00522064*
Y00522098*
X01162836*
Y00522131*
X01162869*
Y00522164*
Y00522197*
X01162902*
Y00522231*
X01162936*
Y00522264*
Y00522298*
X01162969*
Y00522331*
X01163002*
Y00522364*
X01163036*
Y00522397*
Y00522431*
X01163069*
Y00522464*
X01163102*
Y00522498*
Y00522531*
X01163136*
Y00522564*
X01163169*
Y00522598*
Y00522631*
X01163203*
Y00522664*
Y00522698*
Y00522732*
Y00522764*
Y00522798*
Y00522831*
Y00522864*
X01163169*
Y00522898*
Y00522931*
Y00522964*
X01163136*
Y00522998*
Y00523031*
X01163102*
Y00523064*
Y00523098*
Y00523131*
X01163069*
Y00523164*
Y00523198*
X01163036*
Y00523231*
Y00523264*
Y00523298*
X01163002*
Y00523331*
Y00523364*
X01162969*
Y00523398*
Y00523431*
Y00523464*
X01162936*
Y00523498*
Y00523531*
X01162902*
Y00523564*
Y00523598*
Y00523631*
X01162869*
Y00523664*
Y00523698*
X01162836*
Y00523731*
Y00523764*
Y00523798*
X01162802*
Y00523831*
Y00523864*
X01162769*
Y00523898*
Y00523931*
Y00523964*
X01162736*
Y00523998*
Y00524031*
X01162702*
Y00524064*
Y00524098*
Y00524131*
X01162669*
Y00524164*
Y00524198*
X01162636*
Y00524231*
Y00524264*
Y00524298*
X01162602*
Y00524331*
Y00524364*
X01162569*
Y00524398*
Y00524431*
Y00524464*
X01162536*
Y00524498*
Y00524531*
X01162502*
Y00524565*
Y00524598*
Y00524631*
X01162469*
Y00524664*
Y00524698*
X01162436*
Y00524731*
X01162402*
Y00524765*
X01162336*
Y00524798*
X01162169*
Y00524831*
X01162002*
Y00524864*
X01161836*
Y00524898*
X01161636*
Y00524931*
X01161469*
Y00524965*
X01161269*
Y00524998*
X01161102*
Y00525031*
X01160936*
Y00525064*
X01160735*
Y00525098*
X01160569*
Y00525131*
X01160402*
Y00525164*
X01160202*
Y00525198*
X01160035*
Y00525231*
X01159935*
Y00525265*
X01159902*
Y00525298*
X01159869*
Y00525331*
Y00525365*
Y00525399*
Y00525431*
Y00525465*
Y00525498*
Y00525531*
Y00525565*
Y00525598*
Y00525631*
Y00525665*
Y00525698*
Y00525731*
Y00525765*
Y00525798*
Y00525831*
Y00525865*
Y00525898*
Y00525931*
Y00525965*
Y00525998*
Y00526031*
Y00526065*
Y00526098*
Y00526131*
Y00526165*
Y00526198*
Y00526231*
Y00526265*
Y00526298*
Y00526331*
Y00526365*
Y00526398*
Y00526431*
Y00526465*
Y00526498*
Y00526531*
Y00526565*
Y00526598*
Y00526631*
Y00526665*
Y00526698*
Y00526731*
Y00526765*
Y00526798*
Y00526831*
Y00526865*
Y00526898*
Y00526931*
Y00526965*
Y00526998*
Y00527031*
Y00527065*
Y00527098*
Y00527131*
Y00527165*
Y00527198*
Y00527232*
Y00527265*
Y00527298*
Y00527331*
Y00527365*
Y00527398*
Y00527432*
Y00527465*
Y00527498*
Y00527532*
Y00527565*
Y00527598*
Y00527631*
Y00527665*
Y00527698*
Y00527732*
Y00527765*
Y00527798*
Y00527831*
Y00527865*
Y00527898*
Y00527932*
X01159902*
Y00527965*
X01160002*
Y00527998*
X01160169*
Y00528032*
X01160336*
Y00528066*
X01160535*
Y00528098*
X01160702*
Y00528132*
X01160869*
Y00528165*
X01161069*
Y00528198*
X01161236*
Y00528232*
X01161436*
Y00528265*
X01161602*
Y00528298*
X01161769*
Y00528332*
X01161969*
Y00528365*
X01162136*
Y00528398*
X01162302*
Y00528432*
X01162436*
Y00528465*
X01162469*
Y00528498*
X01162502*
Y00528532*
X01162536*
Y00528565*
Y00528598*
X01162569*
Y00528632*
Y00528665*
X01162602*
Y00528698*
Y00528732*
Y00528765*
X01162636*
Y00528798*
Y00528832*
X01162669*
Y00528865*
Y00528898*
X01162702*
Y00528932*
Y00528965*
Y00528998*
X01162736*
Y00529032*
Y00529065*
X01162769*
Y00529098*
Y00529132*
X01162802*
Y00529165*
Y00529198*
Y00529232*
X01162836*
Y00529265*
Y00529298*
X01162869*
Y00529332*
Y00529365*
X01162902*
Y00529398*
Y00529432*
Y00529465*
X01162936*
Y00529498*
Y00529532*
X01162969*
Y00529565*
Y00529598*
X01163002*
Y00529632*
Y00529665*
Y00529698*
X01163036*
Y00529732*
Y00529765*
X01163069*
Y00529798*
Y00529832*
X01163102*
Y00529865*
Y00529898*
Y00529932*
X01163136*
Y00529965*
Y00529999*
X01163169*
Y00530032*
Y00530065*
X01163203*
Y00530098*
Y00530132*
Y00530165*
X01163236*
Y00530199*
Y00530232*
X01163269*
Y00530265*
Y00530298*
Y00530332*
Y00530365*
X01163303*
Y00530399*
X01163269*
Y00530432*
Y00530465*
Y00530498*
X01163236*
Y00530532*
X01163203*
Y00530565*
Y00530599*
X01163169*
Y00530632*
X01163136*
Y00530665*
X01163102*
Y00530699*
Y00530733*
X01163069*
Y00530765*
X01163036*
Y00530799*
Y00530832*
X01163002*
Y00530865*
X01162969*
Y00530899*
Y00530932*
X01162936*
Y00530965*
X01162902*
Y00530999*
Y00531032*
X01162869*
Y00531065*
X01162836*
Y00531099*
Y00531132*
X01162802*
Y00531165*
X01162769*
Y00531199*
X01162736*
Y00531232*
Y00531265*
X01162702*
Y00531299*
X01162669*
Y00531332*
Y00531365*
X01162636*
Y00531399*
X01162602*
Y00531432*
Y00531465*
X01162569*
Y00531499*
X01162536*
Y00531532*
Y00531565*
X01162502*
Y00531599*
X01162469*
Y00531632*
Y00531665*
X01162436*
Y00531699*
X01162402*
Y00531732*
Y00531765*
X01162369*
Y00531799*
X01162336*
Y00531832*
X01162302*
Y00531865*
Y00531899*
X01162269*
Y00531932*
X01162236*
Y00531965*
Y00531999*
X01162202*
Y00532032*
X01162169*
Y00532065*
Y00532099*
X01162136*
Y00532132*
X01162102*
Y00532165*
Y00532199*
X01162069*
Y00532232*
X01162036*
Y00532265*
Y00532299*
X01162002*
Y00532332*
X01161969*
Y00532365*
X01161936*
Y00532399*
Y00532432*
X01161902*
Y00532466*
X01161869*
Y00532499*
Y00532532*
X01161836*
Y00532565*
Y00532599*
Y00532632*
Y00532666*
X01161869*
Y00532699*
X01161902*
Y00532732*
X01161936*
Y00532765*
X01161969*
Y00532799*
X01162002*
Y00532832*
X01162036*
Y00532866*
X01162069*
Y00532899*
X01162102*
Y00532932*
X01162136*
Y00532965*
X01162169*
Y00532999*
X01162202*
Y00533032*
X01162236*
Y00533065*
X01162269*
Y00533099*
X01162302*
Y00533132*
X01162336*
Y00533166*
X01162369*
Y00533199*
X01162402*
Y00533232*
X01162436*
Y00533266*
X01162469*
Y00533299*
X01162502*
Y00533332*
X01162536*
Y00533366*
X01162569*
Y005334*
X01162602*
Y00533432*
X01162636*
Y00533466*
X01162669*
Y00533499*
X01162702*
Y00533532*
X01162736*
Y00533566*
X01162769*
Y00533599*
X01162802*
Y00533632*
X01162836*
Y00533666*
X01162869*
Y00533699*
X01162902*
Y00533732*
X01162936*
Y00533766*
X01162969*
Y00533799*
X01163002*
Y00533832*
X01163036*
Y00533866*
X01163069*
Y00533899*
X01163102*
Y00533932*
X01163136*
Y00533966*
X01163169*
Y00533999*
X01163203*
Y00534032*
X01163236*
Y00534066*
X01163269*
Y00534099*
X01163303*
Y00534132*
X01163336*
Y00534166*
X01163369*
Y00534199*
X01163402*
Y00534232*
X01163436*
Y00534266*
X01163469*
Y00534299*
X01163502*
Y00534332*
X01163536*
Y00534366*
X01163569*
Y00534399*
X01163603*
Y00534432*
X01163636*
Y00534466*
X01163669*
Y00534499*
X01163769*
Y00534466*
X01163836*
Y00534432*
X01163869*
Y00534399*
X01163936*
Y00534366*
X01163969*
Y00534332*
X01164036*
Y00534299*
X01164069*
Y00534266*
X01164136*
Y00534232*
X01164169*
Y00534199*
X01164236*
Y00534166*
X01164269*
Y00534132*
X01164303*
Y00534099*
X01164369*
Y00534066*
X01164403*
Y00534032*
X01164469*
Y00533999*
X01164503*
Y00533966*
X01164569*
Y00533932*
X01164603*
Y00533899*
X01164669*
Y00533866*
X01164703*
Y00533832*
X01164769*
Y00533799*
X01164803*
Y00533766*
X01164836*
Y00533732*
X01164903*
Y00533699*
X01164936*
Y00533666*
X01165003*
Y00533632*
X01165036*
Y00533599*
X01165103*
Y00533566*
X01165136*
Y00533532*
X01165203*
Y00533499*
X01165236*
Y00533466*
X01165303*
Y00533432*
X01165336*
Y005334*
X01165403*
Y00533366*
X01165436*
Y00533332*
X01165469*
Y00533299*
X01165536*
Y00533266*
X01165569*
Y00533232*
X01165636*
Y00533199*
X01165669*
Y00533166*
X01165736*
Y00533132*
X01165769*
Y00533099*
X01165836*
Y00533065*
X0116587*
Y00533032*
X0116597*
Y00532999*
X01166036*
Y00533032*
X01166136*
Y00533065*
X01166203*
Y00533099*
X01166303*
Y00533132*
X01166369*
Y00533166*
X0116647*
Y00533199*
X01166536*
Y00533232*
X01166636*
Y00533266*
X01166703*
Y00533299*
X01166803*
Y00533332*
X0116687*
Y00533366*
X01166936*
Y005334*
X01167036*
Y00533432*
X01167103*
Y00533466*
X01167203*
Y00533499*
X0116727*
Y00533532*
X0116737*
Y00533566*
X01167436*
Y00533599*
X01167536*
Y00533632*
X01167603*
Y00533666*
X0116767*
Y00533699*
X0116777*
Y00533732*
X01167803*
Y00533766*
X01167836*
Y00533799*
X0116787*
Y00533832*
Y00533866*
Y00533899*
X01167903*
Y00533932*
Y00533966*
Y00533999*
Y00534032*
Y00534066*
X01167936*
Y00534099*
Y00534132*
Y00534166*
Y00534199*
Y00534232*
Y00534266*
X0116797*
Y00534299*
Y00534332*
Y00534366*
Y00534399*
Y00534432*
X01168003*
Y00534466*
Y00534499*
Y00534532*
Y00534566*
Y00534599*
X01168036*
Y00534632*
Y00534666*
Y00534699*
Y00534732*
Y00534766*
Y00534799*
X0116807*
Y00534832*
Y00534866*
Y00534899*
Y00534932*
Y00534966*
X01168103*
Y00534999*
Y00535032*
Y00535066*
Y00535099*
Y00535133*
X01168136*
Y00535166*
Y00535199*
Y00535232*
Y00535266*
Y00535299*
Y00535333*
X0116817*
Y00535366*
Y00535399*
Y00535433*
Y00535466*
Y00535499*
X01168203*
Y00535532*
Y00535566*
Y00535599*
Y00535633*
Y00535666*
Y00535699*
X01168236*
Y00535732*
Y00535766*
Y00535799*
Y00535833*
Y00535866*
X0116827*
Y00535899*
Y00535933*
Y00535966*
Y00535999*
Y00536033*
X01168303*
Y00536067*
Y00536099*
Y00536133*
Y00536166*
Y00536199*
Y00536233*
X01168336*
Y00536266*
Y00536299*
Y00536333*
Y00536366*
X0116837*
Y00536399*
Y00536433*
X01168437*
Y00536466*
X01171003*
Y00536433*
G37*
G36*
X01057058Y0054751D02*
X01055755Y00546207D01*
X01050851Y0055111*
Y0055109*
Y00551048*
X01050841Y00550976*
Y00550872*
X0105082Y00550748*
X01050799Y00550604*
X01050778Y00550438*
X01050737Y00550252*
X01050706Y00550055*
X01050654Y00549838*
X0105053Y00549403*
X01050365Y00548928*
X01050147Y00548441*
X01048968Y00549621*
X01048978Y00549631*
Y00549652*
X01048999Y00549693*
X0104903Y00549745*
X01049092Y0054989*
X01049154Y00550097*
X01049237Y00550345*
X0104931Y00550645*
X01049392Y00550976*
X01049444Y00551359*
Y00551379*
X01049454Y0055141*
Y00551473*
Y00551535*
X01049465Y00551731*
Y00552*
X01049444Y0055229*
X01049392Y00552611*
X0104931Y00552942*
X01049175Y00553262*
X01050241Y00554328*
X01057058Y0054751*
G37*
G36*
X01051244Y00541696D02*
X01050075Y00540527D01*
X01043164Y00543465*
X0104453Y00544831*
X01047975Y00543248*
X01049092Y00542669*
X01049082Y00542679*
X01049061Y00542741*
X0104902Y00542803*
X01048968Y00542896*
X01048885Y00543082*
X01048844Y00543165*
X01048803Y00543227*
X01048792Y00543238*
X01048782Y00543269*
X01048751Y0054332*
X01048709Y00543403*
X01048616Y00543579*
X01048513Y00543786*
X0104694Y00547241*
X01048275Y00548576*
X01051244Y00541696*
G37*
G54D10*
X01169589Y00541897D02*
D01*
X01168544Y00541851*
X01167503Y00541731*
X01166474Y00541539*
X01165461Y00541276*
X01164468Y00540943*
X01163501Y00540541*
X01162565Y00540073*
X01161663Y00539541*
X01160801Y00538947*
X01159982Y00538294*
X01159211Y00537586*
X01158491Y00536826*
X01157826Y00536018*
X01157219Y00535165*
X01156673Y00534271*
X0115619Y00533342*
X01155774Y00532382*
X01155425Y00531394*
X01155147Y00530385*
X01154939Y00529359*
X01154803Y00528321*
X0115474Y00527276*
X01154751Y00526229*
X01154834Y00525185*
X0115499Y0052415*
X01155217Y00523128*
X01155516Y00522125*
X01155883Y00521144*
X01156318Y00520192*
X01156819Y00519273*
X01157382Y0051839*
X01158006Y00517549*
X01158687Y00516754*
X01159421Y00516008*
X01160206Y00515315*
X01161037Y00514678*
X01161911Y00514101*
X01162823Y00513586*
X01163768Y00513137*
X01164743Y00512754*
X01165741Y0051244*
X0116676Y00512197*
X01167792Y00512025*
X01168835Y00511926*
X01169881Y00511899*
X01170927Y00511946*
X01171967Y00512066*
X01172997Y00512258*
X0117401Y00512521*
X01175002Y00512854*
X01175969Y00513256*
X01176906Y00513724*
X01177807Y00514256*
X0117867Y0051485*
X01179488Y00515502*
X0118026Y0051621*
X0118098Y00516971*
X01181645Y00517779*
X01182252Y00518632*
X01182798Y00519525*
X0118328Y00520454*
X01183697Y00521415*
X01184045Y00522402*
X01184324Y00523411*
X01184532Y00524438*
X01184667Y00525476*
X0118473Y00526521*
X0118472Y00527568*
X01184637Y00528611*
X01184481Y00529647*
X01184253Y00530669*
X01183955Y00531672*
X01183587Y00532652*
X01183152Y00533605*
X01182652Y00534524*
X01182089Y00535407*
X01181465Y00536248*
X01180784Y00537043*
X01180049Y00537789*
X01179265Y00538482*
X01178434Y00539119*
X0117756Y00539696*
X01176648Y0054021*
X01175703Y0054066*
X01174728Y00541043*
X01173729Y00541357*
X01172711Y005416*
X01171678Y00541772*
X01170636Y00541871*
X01169735Y00541898*
G54D11*
X01178539Y0047625D02*
D01*
X01178536Y00476337*
X01178527Y00476423*
X01178512Y00476509*
X01178491Y00476594*
X01178464Y00476677*
X01178431Y00476758*
X01178393Y00476836*
X01178349Y00476912*
X01178301Y00476984*
X01178247Y00477053*
X01178189Y00477118*
X01178126Y00477178*
X01178059Y00477235*
X01177988Y00477286*
X01177914Y00477332*
X01177837Y00477373*
X01177758Y00477408*
X01177676Y00477438*
X01177592Y00477462*
X01177506Y0047748*
X0117742Y00477493*
X01177333Y00477499*
X01177246*
X01177159Y00477493*
X01177072Y0047748*
X01176987Y00477462*
X01176903Y00477438*
X01176821Y00477408*
X01176741Y00477373*
X01176664Y00477332*
X0117659Y00477286*
X0117652Y00477235*
X01176453Y00477178*
X0117639Y00477118*
X01176332Y00477053*
X01176278Y00476984*
X01176229Y00476912*
X01176186Y00476836*
X01176148Y00476758*
X01176115Y00476677*
X01176088Y00476594*
X01176067Y00476509*
X01176052Y00476423*
X01176042Y00476337*
X01176039Y0047625*
X01176042Y00476162*
X01176052Y00476076*
X01176067Y00475989*
X01176088Y00475905*
X01176115Y00475822*
X01176148Y00475741*
X01176186Y00475663*
X01176229Y00475587*
X01176278Y00475515*
X01176332Y00475446*
X0117639Y00475381*
X01176453Y0047532*
X0117652Y00475264*
X0117659Y00475213*
X01176664Y00475167*
X01176741Y00475126*
X01176821Y0047509*
X01176903Y00475061*
X01176987Y00475036*
X01177072Y00475018*
X01177159Y00475006*
X01177246Y00475*
X01177333*
X0117742Y00475006*
X01177506Y00475018*
X01177592Y00475036*
X01177676Y00475061*
X01177758Y0047509*
X01177837Y00475126*
X01177914Y00475167*
X01177988Y00475213*
X01178059Y00475264*
X01178126Y0047532*
X01178189Y00475381*
X01178247Y00475446*
X01178301Y00475515*
X01178349Y00475587*
X01178393Y00475663*
X01178431Y00475741*
X01178464Y00475822*
X01178491Y00475905*
X01178512Y00475989*
X01178527Y00476076*
X01178536Y00476162*
X01178539Y0047625*
X01212219Y00407629D02*
D01*
X01212216Y00407716*
X01212207Y00407803*
X01212192Y00407889*
X01212171Y00407974*
X01212144Y00408057*
X01212111Y00408138*
X01212073Y00408216*
X01212029Y00408292*
X01211981Y00408364*
X01211927Y00408433*
X01211869Y00408498*
X01211806Y00408558*
X01211739Y00408614*
X01211668Y00408666*
X01211594Y00408712*
X01211517Y00408753*
X01211438Y00408788*
X01211356Y00408818*
X01211272Y00408842*
X01211186Y00408861*
X012111Y00408872*
X01211013Y00408879*
X01210926*
X01210839Y00408872*
X01210752Y00408861*
X01210667Y00408842*
X01210583Y00408818*
X01210501Y00408788*
X01210422Y00408753*
X01210344Y00408712*
X0121027Y00408666*
X012102Y00408614*
X01210133Y00408558*
X0121007Y00408498*
X01210012Y00408433*
X01209958Y00408364*
X01209909Y00408292*
X01209866Y00408216*
X01209827Y00408138*
X01209795Y00408057*
X01209768Y00407974*
X01209747Y00407889*
X01209732Y00407803*
X01209723Y00407716*
X01209719Y00407629*
X01209723Y00407542*
X01209732Y00407455*
X01209747Y0040737*
X01209768Y00407285*
X01209795Y00407202*
X01209827Y00407121*
X01209866Y00407043*
X01209909Y00406967*
X01209958Y00406895*
X01210012Y00406826*
X0121007Y00406761*
X01210133Y004067*
X012102Y00406644*
X0121027Y00406593*
X01210344Y00406547*
X01210422Y00406506*
X01210501Y0040647*
X01210583Y00406441*
X01210667Y00406417*
X01210752Y00406398*
X01210839Y00406386*
X01210926Y0040638*
X01211013*
X012111Y00406386*
X01211186Y00406398*
X01211272Y00406417*
X01211356Y00406441*
X01211438Y0040647*
X01211517Y00406506*
X01211594Y00406547*
X01211668Y00406593*
X01211739Y00406644*
X01211806Y004067*
X01211869Y00406761*
X01211927Y00406826*
X01211981Y00406895*
X01212029Y00406967*
X01212073Y00407043*
X01212111Y00407121*
X01212144Y00407202*
X01212171Y00407285*
X01212192Y0040737*
X01212207Y00407455*
X01212216Y00407542*
X01212219Y00407629*
X00998199Y0045593D02*
D01*
X00998196Y00456017*
X00998187Y00456103*
X00998172Y00456189*
X00998151Y00456274*
X00998124Y00456357*
X00998091Y00456438*
X00998053Y00456516*
X00998009Y00456592*
X00997961Y00456664*
X00997907Y00456733*
X00997849Y00456798*
X00997786Y00456858*
X00997719Y00456915*
X00997648Y00456966*
X00997574Y00457012*
X00997497Y00457053*
X00997418Y00457088*
X00997336Y00457118*
X00997252Y00457142*
X00997166Y0045716*
X0099708Y00457173*
X00996993Y00457179*
X00996906*
X00996819Y00457173*
X00996732Y0045716*
X00996647Y00457142*
X00996563Y00457118*
X00996481Y00457088*
X00996401Y00457053*
X00996324Y00457012*
X0099625Y00456966*
X0099618Y00456915*
X00996113Y00456858*
X0099605Y00456798*
X00995992Y00456733*
X00995938Y00456664*
X00995889Y00456592*
X00995846Y00456516*
X00995808Y00456438*
X00995775Y00456357*
X00995748Y00456274*
X00995727Y00456189*
X00995712Y00456103*
X00995702Y00456017*
X00995699Y0045593*
X00995702Y00455842*
X00995712Y00455756*
X00995727Y00455669*
X00995748Y00455585*
X00995775Y00455502*
X00995808Y00455421*
X00995846Y00455343*
X00995889Y00455267*
X00995938Y00455195*
X00995992Y00455126*
X0099605Y00455061*
X00996113Y00455*
X0099618Y00454944*
X0099625Y00454893*
X00996324Y00454847*
X00996401Y00454806*
X00996481Y0045477*
X00996563Y00454741*
X00996647Y00454716*
X00996732Y00454698*
X00996819Y00454686*
X00996906Y0045468*
X00996993*
X0099708Y00454686*
X00997166Y00454698*
X00997252Y00454716*
X00997336Y00454741*
X00997418Y0045477*
X00997497Y00454806*
X00997574Y00454847*
X00997648Y00454893*
X00997719Y00454944*
X00997786Y00455*
X00997849Y00455061*
X00997907Y00455126*
X00997961Y00455195*
X00998009Y00455267*
X00998053Y00455343*
X00998091Y00455421*
X00998124Y00455502*
X00998151Y00455585*
X00998172Y00455669*
X00998187Y00455756*
X00998196Y00455842*
X00998199Y0045593*
X01022839Y00511429D02*
D01*
X01022836Y00511517*
X01022827Y00511603*
X01022812Y00511689*
X01022791Y00511774*
X01022764Y00511857*
X01022731Y00511938*
X01022693Y00512016*
X01022649Y00512092*
X01022601Y00512164*
X01022547Y00512233*
X01022488Y00512298*
X01022426Y00512358*
X01022359Y00512414*
X01022288Y00512466*
X01022214Y00512512*
X01022137Y00512553*
X01022058Y00512588*
X01021976Y00512618*
X01021892Y00512642*
X01021806Y0051266*
X0102172Y00512673*
X01021633Y00512679*
X01021546*
X01021459Y00512673*
X01021372Y0051266*
X01021287Y00512642*
X01021203Y00512618*
X01021121Y00512588*
X01021041Y00512553*
X01020964Y00512512*
X0102089Y00512466*
X0102082Y00512414*
X01020753Y00512358*
X0102069Y00512298*
X01020632Y00512233*
X01020578Y00512164*
X01020529Y00512092*
X01020486Y00512016*
X01020448Y00511938*
X01020415Y00511857*
X01020388Y00511774*
X01020367Y00511689*
X01020352Y00511603*
X01020342Y00511517*
X01020339Y00511429*
X01020342Y00511342*
X01020352Y00511256*
X01020367Y00511169*
X01020388Y00511085*
X01020415Y00511002*
X01020448Y00510921*
X01020486Y00510843*
X01020529Y00510767*
X01020578Y00510695*
X01020632Y00510626*
X0102069Y00510561*
X01020753Y005105*
X0102082Y00510444*
X0102089Y00510393*
X01020964Y00510347*
X01021041Y00510306*
X01021121Y00510271*
X01021203Y00510241*
X01021287Y00510216*
X01021372Y00510198*
X01021459Y00510186*
X01021546Y0051018*
X01021633*
X0102172Y00510186*
X01021806Y00510198*
X01021892Y00510216*
X01021976Y00510241*
X01022058Y00510271*
X01022137Y00510306*
X01022214Y00510347*
X01022288Y00510393*
X01022359Y00510444*
X01022426Y005105*
X01022488Y00510561*
X01022547Y00510626*
X01022601Y00510695*
X01022649Y00510767*
X01022693Y00510843*
X01022731Y00510921*
X01022764Y00511002*
X01022791Y00511085*
X01022812Y00511169*
X01022827Y00511256*
X01022836Y00511342*
X01022839Y00511429*
X01194539Y00463929D02*
D01*
X01194536Y00464017*
X01194527Y00464103*
X01194512Y00464189*
X01194491Y00464274*
X01194464Y00464357*
X01194431Y00464438*
X01194393Y00464516*
X01194349Y00464592*
X01194301Y00464664*
X01194247Y00464733*
X01194189Y00464798*
X01194126Y00464858*
X01194059Y00464914*
X01193988Y00464966*
X01193914Y00465012*
X01193837Y00465053*
X01193758Y00465088*
X01193676Y00465118*
X01193592Y00465142*
X01193506Y0046516*
X0119342Y00465173*
X01193333Y00465179*
X01193246*
X01193159Y00465173*
X01193072Y0046516*
X01192987Y00465142*
X01192903Y00465118*
X01192821Y00465088*
X01192741Y00465053*
X01192664Y00465012*
X0119259Y00464966*
X0119252Y00464914*
X01192453Y00464858*
X0119239Y00464798*
X01192332Y00464733*
X01192278Y00464664*
X01192229Y00464592*
X01192186Y00464516*
X01192147Y00464438*
X01192115Y00464357*
X01192088Y00464274*
X01192067Y00464189*
X01192051Y00464103*
X01192042Y00464017*
X01192039Y00463929*
X01192042Y00463842*
X01192051Y00463755*
X01192067Y00463669*
X01192088Y00463585*
X01192115Y00463502*
X01192147Y00463421*
X01192186Y00463342*
X01192229Y00463267*
X01192278Y00463195*
X01192332Y00463126*
X0119239Y00463061*
X01192453Y00463*
X0119252Y00462944*
X0119259Y00462893*
X01192664Y00462847*
X01192741Y00462806*
X01192821Y0046277*
X01192903Y00462741*
X01192987Y00462716*
X01193072Y00462698*
X01193159Y00462686*
X01193246Y0046268*
X01193333*
X0119342Y00462686*
X01193506Y00462698*
X01193592Y00462716*
X01193676Y00462741*
X01193758Y0046277*
X01193837Y00462806*
X01193914Y00462847*
X01193988Y00462893*
X01194059Y00462944*
X01194126Y00463*
X01194189Y00463061*
X01194247Y00463126*
X01194301Y00463195*
X01194349Y00463267*
X01194393Y00463342*
X01194431Y00463421*
X01194464Y00463502*
X01194491Y00463585*
X01194512Y00463669*
X01194527Y00463755*
X01194536Y00463842*
X01194539Y00463929*
G54D12*
X01107593Y00560598D02*
X01179365Y00488826D01*
X01107593Y00417055D02*
X01141584Y00451045D01*
X01171339Y00480801D02*
X01179365Y00488826D01*
X01035822D02*
X01037964Y00486684D01*
X01105437Y00419212D02*
X01107593Y00417055D01*
X01035822Y00488826D02*
X01042815Y0049582D01*
X01067182Y00520186D02*
X01107593Y00560598D01*
X01157969Y00459879D02*
X01219469D01*
X01157969Y00413879D02*
Y00459879D01*
Y00413879D02*
X01219469D01*
Y00459879*
X00994959Y00449069D02*
Y00450069D01*
X01001459*
X00994959Y00416069D02*
Y00417069D01*
Y00416069D02*
X01001459D01*
X01031959D02*
Y00417069D01*
X01025459Y00416069D02*
X01031959D01*
Y00450069D02*
Y00449069D01*
X01025459Y00450069D02*
X01031959D01*
X01060439Y00435579D02*
X01081939D01*
X01060109Y00412929D02*
X01081609D01*
X01255249Y00449484D02*
X01280649D01*
X01255249Y00525684D02*
X01280649D01*
X01255249Y00449484D02*
Y00525684D01*
X01280649Y00449484D02*
Y00525684D01*
X01018839Y00504929D02*
X01023089D01*
Y00500679D02*
Y00504929D01*
Y00470429D02*
Y00474679D01*
X01018839Y00470429D02*
X01023089D01*
X00988589D02*
X00992839D01*
X00988589D02*
Y00474679D01*
Y00504929D02*
X00992839D01*
X00988589Y00500679D02*
Y00504929D01*
X01191789Y00470429D02*
X01196039D01*
X01191789D02*
Y00474679D01*
Y00500679D02*
Y00504929D01*
X01196039*
X01222039D02*
X01226289D01*
Y00500679D02*
Y00504929D01*
X01222039Y00470429D02*
X01226289D01*
Y00474679*
X00934229Y00525874D02*
X00959629D01*
X00934229Y00449674D02*
X00959629D01*
Y00525874*
X00934229Y00449674D02*
Y00525874D01*
G54D13*
X01171667Y00497297D02*
X0119888Y0052451D01*
X0115951Y0056388D02*
X0119888Y0052451D01*
X0105664Y0056388D02*
X0115951D01*
X0103759Y0054483D02*
X0105664Y0056388D01*
X0103759Y0054483D02*
X0106426Y0051816D01*
G54D14*
X0098823Y0055651D02*
X00993887Y00550853D01*
X00996834Y00547783D02*
X01002491Y00542126D01*
M02*