%FSTAX44Y44*%
%MOMM*%
%SFA1B1*%

%IPPOS*%
%AMD17*
4,1,4,0.464820,-0.177800,-0.177800,0.464820,-0.464820,0.177800,0.177800,-0.464820,0.464820,-0.177800,0.0*
%
%AMD18*
4,1,4,0.464820,0.177800,0.177800,0.464820,-0.464820,-0.177800,-0.177800,-0.464820,0.464820,0.177800,0.0*
%
%AMD19*
4,1,4,-0.535940,-0.015240,-0.015240,-0.535940,0.535940,0.015240,0.015240,0.535940,-0.535940,-0.015240,0.0*
%
%AMD29*
4,1,4,-0.474980,-0.017780,-0.017780,-0.474980,0.474980,0.017780,0.017780,0.474980,-0.474980,-0.017780,0.0*
%
%AMD32*
4,1,4,-0.017780,0.474980,-0.474980,0.017780,0.017780,-0.474980,0.474980,-0.017780,-0.017780,0.474980,0.0*
%
%AMD33*
4,1,4,-0.563880,0.000000,0.000000,-0.563880,0.563880,0.000000,0.000000,0.563880,-0.563880,0.000000,0.0*
%
%AMD38*
4,1,8,0.800100,-1.000760,0.800100,1.000760,0.751840,1.049020,-0.751840,1.049020,-0.800100,1.000760,-0.800100,-1.000760,-0.751840,-1.049020,0.751840,-1.049020,0.800100,-1.000760,0.0*
1,1,0.096000,0.751840,-1.000760*
1,1,0.096000,0.751840,1.000760*
1,1,0.096000,-0.751840,1.000760*
1,1,0.096000,-0.751840,-1.000760*
%
%AMD39*
4,1,8,0.299720,-0.124460,0.299720,0.124460,0.248920,0.175260,-0.248920,0.175260,-0.299720,0.124460,-0.299720,-0.124460,-0.248920,-0.175260,0.248920,-0.175260,0.299720,-0.124460,0.0*
1,1,0.101600,0.248920,-0.124460*
1,1,0.101600,0.248920,0.124460*
1,1,0.101600,-0.248920,0.124460*
1,1,0.101600,-0.248920,-0.124460*
%
%ADD13C,0.253999*%
G04~CAMADD=17~9~0.0~0.0~358.3~161.4~0.0~0.0~0~0.0~0.0~0.0~0.0~0~0.0~0.0~0.0~0.0~0~0.0~0.0~0.0~315.0~366.0~365.0*
%ADD17D17*%
G04~CAMADD=18~9~0.0~0.0~161.4~358.3~0.0~0.0~0~0.0~0.0~0.0~0.0~0~0.0~0.0~0.0~0.0~0~0.0~0.0~0.0~315.0~366.0~365.0*
%ADD18D18*%
G04~CAMADD=19~9~0.0~0.0~291.3~307.1~0.0~0.0~0~0.0~0.0~0.0~0.0~0~0.0~0.0~0.0~0.0~0~0.0~0.0~0.0~135.0~422.0~421.0*
%ADD19D19*%
%ADD20R,0.574999X0.250000*%
%ADD21R,0.250000X0.674999*%
%ADD22R,0.779998X0.739999*%
%ADD23R,0.699999X0.649999*%
%ADD24R,0.299999X0.629999*%
%ADD25R,0.629999X0.299999*%
%ADD26R,0.739999X0.779998*%
%ADD27R,1.324997X0.824998*%
%ADD28R,0.824998X1.324997*%
G04~CAMADD=29~9~0.0~0.0~255.9~275.6~0.0~0.0~0~0.0~0.0~0.0~0.0~0~0.0~0.0~0.0~0.0~0~0.0~0.0~0.0~135.0~374.0~373.0*
%ADD29D29*%
%ADD30R,0.649999X0.699999*%
%ADD31R,1.849996X1.849996*%
G04~CAMADD=32~9~0.0~0.0~255.9~275.6~0.0~0.0~0~0.0~0.0~0.0~0.0~0~0.0~0.0~0.0~0.0~0~0.0~0.0~0.0~45.0~374.0~373.0*
%ADD32D32*%
G04~CAMADD=33~10~0.0~315.0~0.0~0.0~0.0~0.0~0~0.0~0.0~0.0~0.0~0~0.0~0.0~0.0~0.0~0~0.0~0.0~0.0~135.0~315.0~0.0*
%ADD33D33*%
%ADD36R,1.799996X1.799996*%
%ADD37C,0.499999*%
G04~CAMADD=38~8~0.0~0.0~826.8~629.9~18.9~0.0~15~0.0~0.0~0.0~0.0~0~0.0~0.0~0.0~0.0~0~0.0~0.0~0.0~270.0~630.0~827.0*
%ADD38D38*%
G04~CAMADD=39~8~0.0~0.0~137.8~236.2~20.0~0.0~15~0.0~0.0~0.0~0.0~0~0.0~0.0~0.0~0.0~0~0.0~0.0~0.0~270.0~236.0~138.0*
%ADD39D39*%
%ADD40C,0.599999*%
%LNpcb1-1*%
%LPD*%
G36*
X01203147Y00562548D02*
X01202753Y00562384D01*
X01201544Y00561175*
X01200889Y00559594*
Y00557884*
X01200612Y00557469*
X01200229*
Y00548909*
X01198989*
Y00543739*
X0120523*
X01211469*
Y0054825*
X01212692Y00549023*
X01213379Y00548724*
Y00537819*
X01213391*
X01213918Y00536549*
X0121352Y00536151*
X01212865Y0053457*
Y00533298*
X01212739Y00533155*
X01211469Y00533635*
Y00534579*
X012065*
Y00528139*
X0120396*
Y00534579*
X01198989*
Y00528359*
X01197816Y00527873*
X01163044Y00562644*
X0116353Y00563818*
X01202895*
X01203147Y00562548*
G37*
G36*
X01052142Y00562644D02*
X01035888Y0054639D01*
X01035476Y00545395*
X01035888Y005444*
X01046153Y00534135*
X01046019Y00533701*
X0104553Y00532961*
X01044079*
X01042499Y00532307*
X01041289Y00531097*
X01040246Y00531582*
X0103986Y00531925*
X01036346Y00535439*
X01031792Y00530886*
X01029996Y00532682*
X0103455Y00537236*
X01031035Y0054075*
X01030886Y00540601*
X0102796Y00543527*
X01023406Y00538973*
X0102161Y00540769*
X01026164Y00545323*
X0102265Y00548837*
X01022419Y00550012*
X01023027Y0055062*
X01023681Y005522*
Y00553911*
X01023027Y00555491*
X01021817Y00556701*
X01020237Y00557355*
X01018526*
X01016945Y00556701*
X01015736Y00555491*
X01015538Y00555015*
X01014454Y00554799*
X01007666Y00548011*
X01000949Y00541294*
X00999728Y00541411*
X00998822Y00542317*
X00995095Y00538591*
X00998821Y00534864*
X01002548Y00538591*
X01003769Y00538473*
X01007383Y00534859*
X01008925Y005364*
X01010445Y00534879*
X01008366Y005328*
X01008667Y00532499*
X01008141Y00531229*
X01007864*
X01006283Y00530574*
X01005074Y00529365*
X01004419Y00527784*
Y00526074*
X01005074Y00524493*
X01006283Y00523284*
X01007864Y00522629*
X01009574*
X01011155Y00523284*
X01012364Y00524493*
X01013019Y00526074*
Y00526351*
X01014147Y00527019*
X01015437Y00525729*
X0102149Y00531782*
X01022367Y00530905*
X01021877Y00529838*
X01016752Y00524713*
X0101715Y00524315*
X01016663Y00523006*
X0101541Y00522487*
X01014201Y00521277*
X01013546Y00519697*
Y00517986*
X01014201Y00516406*
X0101541Y00515196*
X01016991Y00514542*
X01018701*
X01020282Y00515196*
X01021491Y00516406*
X0102201Y00517658*
X01023005Y00518028*
X01023416Y00518049*
X01023823Y00517642*
X01026388Y00520207*
X0102789Y00518705*
X01026349Y00517163*
X0103045Y00513063*
X01029964Y00511889*
X01011417*
X01010414Y0051169*
X01009564Y00511122*
X01007229Y00508787*
X01005959Y00509313*
Y00512565*
X0100576Y00513568*
X01005192Y00514418*
X00997751Y00521859*
X00996901Y00522427*
X00995898Y00522626*
X00986489*
X00986003Y005238*
X00990188Y00527984*
X00982692Y0053548*
X00979581Y00532368*
X00979366Y00532225*
X00977559Y00530417*
X00977164Y00530495*
X00976746Y00531874*
X00981583Y00536711*
X00974088Y00544206*
X0097498Y00545107*
X00976318Y00546445*
X00979172Y00543591*
X00983797Y00548216*
X00988421Y0055284*
X00985567Y00555694*
X0099369Y00563818*
X01051656*
X01052142Y00562644*
G37*
G36*
X00962074Y00531793D02*
X00962929Y0053126D01*
Y00529844*
X00963583Y00528263*
X00964793Y00527053*
X00966373Y00526398*
X00968084*
X00969664Y00527053*
X00970552Y0052794*
X00971628Y00527221*
X00971301Y00526431*
Y00524721*
X00971643Y00523897*
X0097081Y00522626*
X00957229*
Y00523379*
X00936629*
Y00502779*
X00954476*
Y00497979*
X00936629*
Y00477379*
X00957229*
Y00483789*
X00977713*
X0098299Y00478512*
X0098384Y00477944*
X00984843Y00477745*
X00987539*
Y00477379*
X00994049*
Y00475889*
X00994299*
Y00475099*
X00998339*
Y00472559*
X00994299*
Y00469919*
X00962974*
X00962496Y00469824*
X00957229*
Y00472579*
X00936629*
Y00451979*
X00957229*
Y00464584*
X00962739*
Y00460433*
X00962169Y00460052*
X00962053Y00459936*
X00961972Y0045992*
X00961122Y00459352*
X00959536Y00457766*
X00958968Y00456916*
X00958769Y00455914*
Y00447872*
X00957595Y00447386*
X00956931Y0044805*
X00956336Y00448448*
X00955633Y00448587*
X0093326*
Y00468972*
Y004953*
Y00526771*
X00955883*
X00956586Y0052691*
X00957181Y00527308*
X00961755Y00531882*
X00962074Y00531793*
G37*
G36*
X01000719Y0051148D02*
Y00505979D01*
X00995539*
Y00498229*
X00995289*
Y00497979*
X00987539*
Y004953*
X00984791*
X00984139Y0049657*
Y00501469*
X009779*
Y00502739*
X0097663*
Y00509179*
X0096774*
Y00502739*
X0096647*
Y00501469*
X00960229*
Y00496299*
X00959577Y004953*
X00957229*
Y00497979*
X00955883*
Y00502779*
X00957229*
Y00517386*
X00980551*
X00980625Y00517336*
X00981628Y00517137*
X00983757*
X0098476Y00517336*
X00984833Y00517386*
X00994813*
X01000719Y0051148*
G37*
G36*
X01257947Y00527308D02*
X01258542Y0052691D01*
X01259245Y00526771*
X01281617*
Y00448587*
X01258995*
X01258292Y00448448*
X01257697Y0044805*
X01247696Y00438049*
X01246523Y00438535*
Y00439548*
X01241753*
Y00435028*
X01243016*
X01243502Y00433855*
X01221188Y0041154*
X0121501*
X01214885Y0041281*
X01215175Y00412868*
X01216025Y00413436*
X01219782Y00417193*
X0122035Y00418043*
X01220549Y00419046*
Y00427504*
X01221819Y0042803*
X01222111Y00427739*
X01223691Y00427084*
X01225402*
X01226982Y00427739*
X01228192Y00428948*
X01228846Y0043053*
Y00432239*
X01228192Y0043382*
X01227013Y00434998*
X01227019Y00435169*
X0122731Y00436268*
X01234443*
Y00435028*
X01239213*
Y00440818*
X01240483*
Y00442088*
X01246523*
Y00444609*
X01247049*
Y0044958*
X01240609*
Y0045212*
X01247049*
Y00454579*
X01257649*
Y00451979*
X01278249*
Y00472579*
X01260402*
Y00477379*
X01278249*
Y00494686*
Y00497979*
X01257649*
Y00497569*
X01227339*
Y00497979*
X01220829*
Y00499469*
X01220579*
Y00500259*
X01216539*
Y00501529*
X01215269*
Y00507219*
X01214389*
Y00509055*
X01221519*
X01222522Y00509254*
X01223372Y00509822*
X01229089Y00515539*
X01257649*
Y00502779*
X01278249*
Y0052098*
Y00523379*
X01257649*
Y00520779*
X01228003*
X01227Y0052058*
X0122615Y00520012*
X01222928Y0051679*
X01221755Y00517276*
Y00522445*
Y00532045*
X01221367Y00532625*
X01221465Y0053286*
Y0053457*
X0122081Y00536151*
X01220412Y00536549*
X01220759Y00537819*
X01222479*
Y00547319*
Y00556919*
X01213379*
Y00554739*
X01210229*
Y00557469*
X01209766*
X01209489Y00557884*
Y00559594*
X01208834Y00561175*
X01207625Y00562384*
X01207231Y00562548*
X01207484Y00563818*
X01221438*
X01257947Y00527308*
G37*
G36*
X01127812Y00452476D02*
X01128807Y00452064D01*
X01129801Y00452476*
X01135868Y00458543*
X01136846Y00459248*
X0113913Y00456964*
X01130555Y00448389*
X01105984*
X01081733Y00472641*
X01080883Y00473209*
X01079881Y00473408*
X01073376*
X01072373Y00473209*
X01072084Y00473016*
X01071058Y00473857*
X01071095Y00473946*
Y00475656*
X0107044Y00477237*
X01069231Y00478446*
X0106765Y00479101*
X0106688*
X01065869Y00479459*
X01065707Y00480274*
Y00481226*
X01065052Y00482807*
X01063843Y00484016*
X01062262Y00484671*
X01060552*
X01058971Y00484016*
X01057762Y00482807*
X01057349Y00481811*
X01055934Y00481655*
X01051555Y00486033*
X01046478Y0049111*
X01048734Y00493366*
X01051018Y00491082*
X01055755Y0049582*
X01056406Y0049647*
X01061143Y00501208*
X01061794Y00501858*
X01066284Y00506349*
X01066532Y00506596*
X01067182Y00507246*
X01070112Y00510176*
X01127812Y00452476*
G37*
G36*
X01186872Y0050775D02*
X01186811Y00507441D01*
Y00497612*
X0118701Y00496609*
X01187019Y00496596*
X01187022Y0049658*
X01186487Y00495106*
X01185651Y0049476*
X01184442Y0049355*
X01183787Y00491969*
Y00490601*
X01183353Y00489963*
X01182715Y00489528*
X01181346*
X01179765Y00488874*
X01178556Y00487664*
X01177901Y00486083*
Y00484373*
X01178556Y00482792*
X01179765Y00481584*
X01181346Y00480928*
X01183056*
X01184637Y00481584*
X01185573Y00482519*
X01190739*
Y00477379*
X011903Y00476291*
X01190154Y00476145*
X01189499Y00474564*
Y00474551*
X01188659Y00473629*
X01180099*
Y00474869*
X01174929*
Y0046863*
X01172389*
Y0047496*
X01171941Y00476042*
X01173163Y00477266*
X01169048Y0048138*
X01165802Y00478135*
X01164006Y00479931*
X01167252Y00483176*
X01163877Y00486551*
X01185702Y00508376*
X01186872Y0050775*
G37*
G36*
X01257649Y0048288D02*
Y00477379D01*
X01258995*
Y00472579*
X01257649*
Y00459819*
X01225061*
X01216675Y00468206*
X01217161Y00469379*
X01219339*
Y00477129*
X01219589*
Y00477379*
X01227339*
Y00478648*
X01228512Y00479135*
X01229293Y00478354*
X01230143Y00477786*
X01230907Y00477634*
Y00471137*
X01235877*
Y00477577*
X01238417*
Y00471137*
X01247307*
Y00477577*
X01248577*
Y00478847*
X01254817*
Y0048288*
X01257649*
G37*
G36*
X01221352Y00456117D02*
X01221746Y00454938D01*
X01221305Y00454458*
X01220546Y004537*
X01219892Y0045212*
Y00450409*
X01220546Y00448828*
X01221105Y00448269*
X01220579Y00446999*
X01215009*
Y00451234*
X01211219*
Y00452504*
X01209949*
Y00458419*
X01207429*
Y00457179*
X01198839*
Y00459689*
X0119864Y00460692*
X01198072Y00461542*
X01198048Y00461566*
X0119839Y0046302*
X01199293Y00463394*
X01200172Y00464273*
X01201277Y00464312*
X01201692Y00464156*
X01202737Y00463111*
X01204317Y00462457*
X01206028*
X01207608Y00463111*
X01208818Y00464321*
X01209473Y00465901*
Y004662*
X01210743Y00466726*
X01221352Y00456117*
G37*
G36*
X0101473Y0046482D02*
X01031293Y00448255D01*
X01030915Y00446844*
X01030749Y0044676*
X01029951Y00446919*
X01028729*
Y00442569*
X01026189*
Y00446919*
X01024966*
X01023777Y00446682*
X01022769Y00446009*
X01022096Y00445001*
X01020979Y00444904*
X01005939*
X01004822Y00445001*
X01004149Y00446009*
X01003141Y00446682*
X01001952Y00446919*
X01000729*
Y00442569*
Y00438219*
X01001952*
X01002854Y00438399*
X01004124Y00437702*
Y00436333*
X01002854Y00435882*
X01002657Y00436014*
X01001952Y00436154*
X00996966*
X00996261Y00436014*
X00995775Y00435689*
X00993084*
X00991076Y00437697*
Y00444841*
X00978932*
X00976195Y00447578*
X00976682Y00448751*
X00981881*
Y00455416*
Y00462081*
X00973986*
X00973979Y00463348*
Y00464679*
X01001621*
X01002624Y00464878*
X01002945Y00465093*
X0101473Y0046482*
G37*
G36*
X01145119Y00450975D02*
X01145635Y00451491D01*
X01146729Y00450397*
Y00443418*
X01143908Y00440597*
X01142226Y0044228*
X01136173Y00436227*
X01135296Y00437104*
X0113164Y00433448*
X01136052Y00429036*
X01135154Y00428138*
X01136052Y0042724*
X01131499Y00422686*
X01134988Y00419196*
X01134898Y00419106*
X01138413Y00415592*
X01142967Y00420146*
X01144763Y0041835*
X01140209Y00413796*
X01141291Y00412714*
X01140805Y0041154*
X01108609*
X01107907Y00411401*
X0110744Y00411088*
X01106971Y00411401*
X01106269Y0041154*
X01078366*
Y00415014*
X01085274*
Y0042291*
X01078609*
Y0042418*
X01077339*
Y00433344*
X01075746*
Y00441747*
X01076605Y00442281*
X01076919Y00442369*
X01080348Y0043894*
X01081225Y00439817*
X01086062Y0043498*
X01086635Y00434407*
X01091125Y00429917*
X01091775Y00429267*
X01096265Y00424776*
X01096838Y00424204*
X01097411Y00423631*
X01101901Y00419141*
X01110174Y00427414*
X01110015Y00427573*
X01115154Y00432712*
X01115474Y00432579*
X01117184*
X01118765Y00433234*
X01119974Y00434443*
X01120629Y00436024*
Y00437734*
X01119974Y00439315*
X01118765Y00440524*
X01117184Y00441179*
X01115474*
X01113893Y00440524*
X01112684Y00439315*
X01112029Y00437734*
Y00436999*
X01109121Y00434091*
X01108157Y0043483*
X01108812Y00436411*
Y00438121*
X01108157Y00439702*
X01106948Y00440911*
X01105367Y00441566*
X01103657*
X01102076Y00440911*
X01102042Y00440877*
X01100544Y00441175*
X01100225Y00441947*
X01099015Y00443156*
X01097555Y00443761*
X0109729Y00444327*
X01097079Y00445081*
X01097364Y00445366*
X01098019Y00446947*
Y00447147*
X01099289Y00447673*
X01103046Y00443916*
X01103896Y00443348*
X011049Y00443149*
X0113164*
X01132643Y00443348*
X01133493Y00443916*
X01142836Y00453259*
X01145119Y00450975*
G37*
G36*
X01068675Y00446433D02*
X01073066Y00442042D01*
X01074339*
Y00432104*
X01073184*
Y00416254*
X0107696*
Y0041154*
X0102235*
Y00418883*
X0102362Y00419562*
X01023777Y00419456*
X01024966Y00419219*
X01026189*
Y00423569*
X01027459*
Y00424839*
X01033053*
X01032822Y00426001*
X01032149Y00427009*
X01031165Y00427666*
X01031141Y00427806*
Y00428832*
X01031165Y00428972*
X01032149Y00429629*
X01032696Y00430449*
X01046973*
X01047976Y00430648*
X01048826Y00431216*
X01049204Y00431595*
X01051623Y00429177*
X01054014Y00431568*
X01055944Y00429638*
Y0042545*
X01061339*
Y00433344*
X0105965*
X0105772Y00435274*
X01059811Y00437365*
X01056438Y00440738*
X01052344Y00436644*
X01050548Y0043844*
X01054642Y00442534*
X01054023Y00443153*
X01056257Y00445387*
X01061169Y00440476*
X01067603Y00446911*
X01068675Y00446433*
G37*
G36*
X01207429Y00446589D02*
X01207669D01*
Y00441829*
Y00433169*
X01206429*
Y00430649*
X01211844*
Y00428109*
X01206429*
Y00425929*
X01200009*
Y00427169*
X01197489*
Y00421254*
Y00415339*
X01200009*
Y00416579*
X01203765*
X01203818Y00416314*
X01204386Y00415464*
X01206414Y00413436*
X01207264Y00412868*
X01207554Y0041281*
X01207429Y0041154*
X01170756*
X01170096Y00412811*
X01170559Y00413929*
Y00415639*
X01171187Y00416579*
X01187429*
Y00415339*
X01189949*
Y00421254*
Y00427169*
X01187429*
Y00425929*
X01176315*
X01175799Y00427199*
X01176364Y00428564*
Y00430274*
X01175709Y00431855*
X011745Y00433064*
X01172919Y00433719*
X01171209*
X01170825Y0043356*
X01169769Y00434266*
Y00435589*
X01171009*
Y00438109*
X01165594*
Y00440649*
X01171009*
Y00443169*
X01169769*
Y00446929*
X01170662Y00447829*
X01207429*
Y00446589*
G37*
G36*
X0101473Y0041997D02*
X01019982D01*
X01020452Y00419657*
X01020942Y00418883*
Y0041154*
X0099344*
X00985206Y00419775*
X00985692Y00420949*
X00995775*
X00996261Y00420624*
X00996966Y00420484*
X01001952*
X01002657Y00420624*
X01003255Y00421023*
X01004397Y00420447*
X01004761Y00420204*
X01005939Y0041997*
X0101219*
Y0043307*
X0101473*
Y0041997*
G37*
%LNpcb1-2*%
%LPC*%
G36*
X01211469Y00541199D02*
X012065D01*
Y00536029*
X01211469*
Y00541199*
G37*
G36*
X0120396D02*
X01198989D01*
Y00536029*
X0120396*
Y00541199*
G37*
G36*
X00990217Y00551044D02*
X00985593Y00546419D01*
X00980968Y00541795*
X00984111Y00538652*
X0098405Y00538591*
X00987777Y00534864*
X00992401Y00539489*
X00997026Y00544113*
X00993883Y00547256*
X00993944Y00547317*
X00990217Y00551044*
G37*
G36*
X00993299Y00536795D02*
X00989573Y00533068D01*
X00993299Y00529342*
X00997026Y00533068*
X00993299Y00536795*
G37*
G36*
X00984139Y00509179D02*
X0097917D01*
Y00504009*
X00984139*
Y00509179*
G37*
G36*
X009652D02*
X00960229D01*
Y00504009*
X009652*
Y00509179*
G37*
G36*
X01220579Y00507219D02*
X01217809D01*
Y00502799*
X01220579*
Y00507219*
G37*
G36*
X01254817Y00476307D02*
X01249847D01*
Y00471137*
X01254817*
Y00476307*
G37*
G36*
X01215009Y00458419D02*
X01212489D01*
Y00453774*
X01215009*
Y00458419*
G37*
G36*
X00984421Y00462081D02*
Y00456686D01*
X00992316*
Y00462081*
X00984421*
G37*
G36*
X00992316Y00454146D02*
X00984421D01*
Y00448751*
X00992316*
Y00454146*
G37*
G36*
X00998189Y00446919D02*
X00996966D01*
X00995778Y00446682*
X00994769Y00446009*
X00994096Y00445001*
X00993865Y00443839*
X00998189*
Y00446919*
G37*
G36*
Y00441299D02*
X00993865D01*
X00994096Y00440137*
X00994769Y00439129*
X00995778Y00438456*
X00996966Y00438219*
X00998189*
Y00441299*
G37*
G36*
X01129844Y00431652D02*
X01126464Y00428272D01*
X01126288Y00428096*
X0112565Y00427948*
X01124964Y00427887*
X01123534Y00428479*
X01121824*
X01120243Y00427824*
X01119034Y00426615*
X01118379Y00425034*
Y00423324*
X01119034Y00421743*
X01120243Y00420534*
X01121824Y00419879*
X01123534*
X01125115Y00420534*
X01126324Y00421743*
X01126979Y00423324*
Y00425034*
X01126713Y00425675*
X0112779Y00426395*
X01129703Y00424482*
X01133358Y00428138*
X01129844Y00431652*
G37*
G36*
X01085274Y00433344D02*
X01079879D01*
Y0042545*
X01085274*
Y00433344*
G37*
G36*
X01069274D02*
X01063879D01*
Y0042545*
X01069274*
Y00433344*
G37*
G36*
X01033053Y00422299D02*
X01028729D01*
Y00419219*
X01029951*
X01031141Y00419456*
X01032149Y00420129*
X01032822Y00421137*
X01033053Y00422299*
G37*
G36*
X01069274Y0042291D02*
X01063879D01*
Y00415014*
X01069274*
Y0042291*
G37*
G36*
X01061339D02*
X01055944D01*
Y00415014*
X01061339*
Y0042291*
G37*
G36*
X01194949Y00427169D02*
X01192489D01*
Y00421254*
Y00415339*
X01194949*
Y00421254*
Y00427169*
G37*
%LNpcb1-3*%
%LPD*%
G54D13*
X01189023Y00491114D02*
X01189729Y00490409D01*
X0118229Y0048514D02*
X01195189D01*
X01188087Y00491114D02*
X01189023D01*
X01182201Y00485228D02*
X0118229Y0048514D01*
X01189729Y00490409D02*
X01194959D01*
X01159813Y00473155D02*
X01164715Y00468253D01*
X01194461Y00474371D02*
Y00479949D01*
X01194691Y00480179D02*
X01195189D01*
X01194461Y00479949D02*
X01194691Y00480179D01*
X011938Y0047371D02*
X01194461Y00474371D01*
X01104382Y00425646D02*
X01115615Y0043688D01*
X0111633*
X01103669Y00425646D02*
X01104382D01*
X01186261Y00453901D02*
Y00460103D01*
X01189408Y0046667D02*
X01191288Y0046479D01*
Y0046462D02*
Y0046479D01*
Y0046462D02*
X01196219Y00459689D01*
X01183459Y0046863D02*
X01185418Y0046667D01*
X01189408*
X01196219Y00452504D02*
Y00459689D01*
X01196858Y00467039D02*
Y00467498D01*
X01201309Y00471949*
Y00473899*
X01095981Y00439511D02*
X01096579D01*
X01092893Y00436423D02*
X01095981Y00439511D01*
X01098281Y00431034D02*
X01104512Y00437266D01*
X01077393Y00452587D02*
X01082295Y00457489D01*
X01076728Y00452587D02*
X01077393D01*
X01082295Y00457489D02*
X0108296D01*
X01071637Y00457975D02*
X01076721Y00463059D01*
X01077017*
X0107134Y00457975D02*
X01071637D01*
X01079881Y00470789D02*
X011049Y0044577D01*
X01073376Y00470789D02*
X01079881D01*
X01065952Y00463363D02*
X01073376Y00470789D01*
X0106004Y00457452D02*
X01065952Y00463363D01*
X01093607Y00447802D02*
X01093719D01*
X01087616Y00441811D02*
X01093607Y00447802D01*
X01087504Y00441811D02*
X01087616D01*
X01197418Y005073D02*
X01201539Y00503179D01*
X01197418Y005073D02*
Y00507551D01*
X01211265Y00454037D02*
Y00460239D01*
X0110366Y00425655D02*
D01*
X01142084Y00435068D02*
X0114935Y00442332D01*
X01055175Y0047414D02*
X01061407Y00480371D01*
X01060655Y00468752D02*
X01066704Y00474801D01*
X01055175Y0047414D02*
D01*
X01066704Y00474801D02*
X01066795D01*
X01143352Y0045748D02*
D01*
X0113164Y0044577D02*
X01143352Y0045748D01*
X01060564Y00468752D02*
X01060655D01*
X011049Y0044577D02*
X0113164D01*
X01194959Y00495409D02*
X01195189Y00495179D01*
X01189431Y00497612D02*
Y00507441D01*
X01191634Y00495409D02*
X01194959D01*
X01189431Y00497612D02*
X01191634Y00495409D01*
X01036699Y00446929D02*
X01042559D01*
X0096139Y00446145D02*
Y00455914D01*
X00962974Y00457499*
X00963322D02*
X00964022Y00458199D01*
X00962974Y00457499D02*
X00963322D01*
X00964022Y00458199D02*
X00965309D01*
X0096774Y00460629*
Y00460829*
X00988506Y00436561D02*
X00991999Y0043307D01*
X00970169Y00448399D02*
X00971669D01*
X00991999Y0043307D02*
X01008459D01*
X00971669Y00448399D02*
X00983506Y00436561D01*
X0096139Y00446145D02*
X00983965Y00423569D01*
X00999459*
X00983506Y00436561D02*
X00988506D01*
X0096774Y00450829D02*
Y00451029D01*
Y00450829D02*
X00970169Y00448399D01*
X01027268Y00442569D02*
X01027459D01*
X01026788Y00443049D02*
Y00446641D01*
X0102131Y0045212D02*
X01026788Y00446641D01*
Y00443049D02*
X01027268Y00442569D01*
X010033Y0045212D02*
X0102131D01*
X00999459Y00442569D02*
Y00448279D01*
X00992322Y00455416D02*
X00999459Y00448279D01*
X00980651Y00455416D02*
X00992322D01*
X00999459Y00448279D02*
X010033Y0045212D01*
X01012522Y00547043D02*
X01018415Y00552936D01*
X01043968Y00528541D02*
X01046544D01*
X01038075Y00522649D02*
X01043968Y00528541D01*
X00976423Y00525576D02*
X00981219Y00530372D01*
X01231146Y00480207D02*
X01234717D01*
X01226403Y00484949D02*
X01231146Y00480207D01*
X01237147Y00477577D02*
Y00477777D01*
X01234717Y00480207D02*
X01237147Y00477777D01*
Y00477577D02*
X01248577D01*
X01237147Y00487377D02*
X01248577D01*
X01223119Y00489949D02*
X01234717D01*
X01237147Y00487377D02*
Y00487519D01*
X01234717Y00489949D02*
X01237147Y00487519D01*
X00984006Y00520006D02*
X00995898D01*
X00981379D02*
X00981628Y00519757D01*
X00995898Y00520006D02*
X01003339Y00512565D01*
X00953856Y00520006D02*
X00981379D01*
X00981628Y00519757D02*
X00983757D01*
X00975601Y00525576D02*
X00976423D01*
X00946929Y0051308D02*
X00953856Y00520006D01*
X00983757Y00519757D02*
X00984006Y00520006D01*
X00981219Y00530372D02*
X00982461D01*
X00968195Y00530818D02*
X00974088Y00536711D01*
X01001621Y00467299D02*
X01003109Y00468787D01*
X00946929Y0046228D02*
X00951854Y00467204D01*
X00962879*
X00962974Y00467299*
X01001621*
X01003109Y00468787D02*
Y00473599D01*
X00991803Y00480365D02*
X00991989Y00480179D01*
X00984843Y00480365D02*
X00991803D01*
X00978798Y0048641D02*
X00984843Y00480365D01*
X00948199Y0048641D02*
X00978798D01*
X00946929Y0048768D02*
X00948199Y0048641D01*
X00983117Y00546197D02*
X00989009Y00552089D01*
X0099223Y00538103D02*
X00998123Y00543996D01*
X0100756Y0054147D02*
X01015578Y00533452D01*
Y00532942D02*
Y00533452D01*
X01166219Y00414824D02*
Y00421254D01*
X01165594Y00429379D02*
X01172024D01*
X0120523Y00552269D02*
X01205379Y00552119D01*
X0121793*
X0114935Y00442332D02*
Y00451483D01*
X01143352Y0045748D02*
X0114935Y00451483D01*
X01143567Y0043513D02*
X01152063Y00426633D01*
X01152277*
X01143567Y0043513D02*
Y00435523D01*
X0115824Y00433596D02*
X01161367Y00430468D01*
X01150508Y00459998D02*
X011541Y00456405D01*
Y00432305D02*
X01163204Y004232D01*
X011541Y00432305D02*
Y00456405D01*
X01154128Y00467153D02*
X0115824Y00463042D01*
Y00433596D02*
Y00463042D01*
X01163204Y004232D02*
X01166199D01*
X0114874Y00462868D02*
X01150508Y00461101D01*
Y00459998D02*
Y00461101D01*
X01161367Y00430468D02*
D01*
X01162436Y00429399D02*
X01165574D01*
X01161367Y00430468D02*
X01162436Y00429399D01*
X01165574D02*
X01165594Y00429379D01*
X01161367Y00430468D02*
D01*
X01154128Y00467153D02*
Y00468256D01*
X0120523Y00552269D02*
Y00558699D01*
X01205189Y00534609D02*
X01205209Y00534629D01*
Y00542449D02*
X0120523Y00542469D01*
X01205209Y00534629D02*
Y00542449D01*
X01217547Y00534097D02*
Y00542237D01*
X01217165Y00533715D02*
X01217547Y00534097D01*
Y00542237D02*
X0121793Y00542619D01*
X01164904Y00479033D02*
X01171029Y00472908D01*
Y00471059D02*
Y00472908D01*
Y00471059D02*
X01173459Y0046863D01*
X01173659*
X01224492Y00450964D02*
X01230694D01*
X01218044Y00431684D02*
X01224246D01*
X01211769Y00469406D02*
Y00473599D01*
Y00469406D02*
X01223976Y004572D01*
X01262869*
X01211539Y00473829D02*
X01211769Y00473599D01*
X01189899Y00439379D02*
X01199899Y00429379D01*
X01165594Y00439379D02*
X01189899D01*
X01199899Y00429379D02*
X01211844D01*
X01240483Y00450723D02*
X01240609Y0045085D01*
X01240483Y00440818D02*
Y00450723D01*
X01227172Y00444379D02*
X01230733Y00440818D01*
X01211844Y00444379D02*
X01227172D01*
X01230733Y00440818D02*
X01230983D01*
X01166219Y00421254D02*
Y0042318D01*
X01166199Y004232D02*
X01166219Y0042318D01*
X01262869Y004572D02*
X01267949Y0046228D01*
X01186219Y00452504D02*
X01191219D01*
X01206239Y00417317D02*
Y00421234D01*
X01208267Y0041529D02*
X01214172D01*
X01206239Y00417317D02*
X01208267Y0041529D01*
X01206219Y00421254D02*
X01206239Y00421234D01*
X01214172Y0041529D02*
X0121793Y00419046D01*
Y004318*
X01215369Y00434359D02*
X0121793Y004318D01*
X01211844Y00434379D02*
X01211864Y00434359D01*
X01215369*
X01196219Y00421254D02*
Y00425699D01*
X01199899Y00429379*
X01191219Y00421254D02*
X01196219D01*
X01206309Y00473599D02*
X01206539Y00473829D01*
X01206309Y00468829D02*
Y00473599D01*
X01205173Y00467693D02*
X01206309Y00468829D01*
X01205173Y00466757D02*
Y00467693D01*
X01206369Y00501699D02*
Y00508548D01*
Y00501699D02*
X01206539Y00501529D01*
X01206199Y00508718D02*
X01206369Y00508548D01*
X01201539Y00501529D02*
Y00503179D01*
X0107696Y00425829D02*
Y00442042D01*
Y00425829D02*
X01078609Y0042418D01*
X01082116Y00447199D02*
D01*
X0107696Y00442042D02*
X01082116Y00447199D01*
X01051446Y00437542D02*
X01051746D01*
X01051446D02*
D01*
X01051746D02*
X01062609Y00426679D01*
Y0042418D02*
Y00426679D01*
X01036267Y00455754D02*
X0104451Y00447511D01*
Y00447302D02*
Y00447511D01*
X01053848Y00454232D02*
X01054877D01*
X0105144D02*
X01053848D01*
X01060992Y00447088*
X01045395Y00462684D02*
X01053848Y00454232D01*
X01054877D02*
X01058097Y00457452D01*
X0106004*
X01043197Y00462684D02*
X01045395D01*
X01027459Y0043307D02*
X01046973D01*
X01051446Y00437542*
X00977796Y00458271D02*
X00980651Y00455416D01*
X0096774Y00460829D02*
X00975249D01*
X00977796Y00458282*
Y00458271D02*
Y00458282D01*
X01027459Y00423569D02*
D01*
Y0043307*
X01026988Y00544868D02*
X01029565D01*
X0103078Y00531898D02*
X01030894Y00531784D01*
X01022806Y00539871D02*
X0103078Y00531898D01*
X01021095Y00538975D02*
X01026988Y00544868D01*
X01035913Y00537031D02*
X0103849D01*
X0103078Y00531898D02*
X01035913Y00537031D01*
X01030021Y00531138D02*
X0103078Y00531898D01*
X01038369Y00468109D02*
X01049787Y00479528D01*
X01010775Y00468109D02*
X01038369D01*
X01008339Y00472179D02*
X01009269Y00471249D01*
X01008339Y00472179D02*
Y00473829D01*
X01009269Y00469615D02*
X01010775Y00468109D01*
X01009269Y00469615D02*
Y00471249D01*
X01003109Y00473599D02*
X01003339Y00473829D01*
X01043716Y00484916D02*
X01044399D01*
X01013569Y00472193D02*
X01030993D01*
X01043716Y00484916*
X01025453Y00480179D02*
X01027426Y00478206D01*
X01028362*
X0103505Y0049022D02*
X01041882D01*
X01020023Y00485185D02*
X01020259Y00484949D01*
X01041882Y0049022D02*
X0104925Y00497587D01*
X01032389Y00495179D02*
X0104521Y00508D01*
X01019689Y00490179D02*
X01035009D01*
X01019689Y00480179D02*
X01025453D01*
X01032169Y00484949D02*
X0103251Y00484609D01*
X01020259Y00484949D02*
X01032169D01*
X01035009Y00490179D02*
X0103505Y0049022D01*
X01019689Y00495179D02*
X01032389D01*
X01018813Y00518962D02*
X01024705Y00524854D01*
X01016236Y00518962D02*
X01018813D01*
X0100711Y0052705D02*
X01009686D01*
X01015578Y00532942*
X01025446Y00524854D02*
X0103296Y0051734D01*
X01023964Y00524854D02*
X01025446D01*
X01022508Y00539871D02*
X01022806D01*
X01011417Y0050927D02*
X01034891D01*
X01045401Y0051435D02*
X01054041D01*
X01013339Y00501529D02*
X01032581D01*
X01045401Y0051435*
X01034891Y0050927D02*
X01045051Y0051943D01*
X01059214*
X0104521Y00508D02*
X01049614D01*
X01013339Y00472423D02*
Y00473829D01*
Y00472423D02*
X01013569Y00472193D01*
X01008339Y00501529D02*
X01008487Y00501677D01*
Y00506339D02*
X01011417Y0050927D01*
X01008487Y00501677D02*
Y00506339D01*
X01059214Y0051943D02*
X01064891Y00513752D01*
X01065414*
X01054041Y0051435D02*
X01060026Y00508364D01*
X01054638Y00502975D02*
D01*
X01049614Y00508D02*
X01054638Y00502975D01*
X0104925Y00497587D02*
D01*
X00998339Y00495179D02*
Y00501529D01*
Y00495179D02*
X01000339Y00493179D01*
X00997859Y00485179D02*
X01000339Y00482699D01*
Y00482179D02*
Y00482699D01*
X00991989Y00485179D02*
X00997859D01*
X00998339Y00480179D02*
X01000339Y00482179D01*
X00998339Y00473829D02*
Y00480179D01*
X0096647Y00502739D02*
X009779D01*
X00978079Y0050292*
X0098171*
X00988474Y00490409D02*
X00991759D01*
X00985092Y00493792D02*
X00988474Y00490409D01*
X0098171Y0050292D02*
X00985092Y00499536D01*
X00991759Y00490409D02*
X00991989Y00490179D01*
X00985092Y00493792D02*
Y00499536D01*
X009779Y00492739D02*
Y00492939D01*
Y00492739D02*
X00985459Y00485179D01*
X00991989*
X0096647Y00492939D02*
X009779D01*
X01003339Y00501529D02*
Y00512565D01*
X01262869Y0051816D02*
X01267949Y0051308D01*
X01221519Y00511675D02*
X01228003Y0051816D01*
X01262869*
X01213257Y00511675D02*
X01221519D01*
X01211769Y00501759D02*
Y00510187D01*
X01213257Y00511675*
X01223119Y00494949D02*
X01260679D01*
X01267949Y0048768*
X01222889Y00490179D02*
X01223119Y00489949D01*
X01222889Y00485179D02*
X01223119Y00484949D01*
X01226403*
X01189431Y00507441D02*
X01199207Y00517217D01*
X01204107D02*
X0120523Y00518339D01*
X01199207Y00517217D02*
X01204107D01*
X0120523Y00528139D02*
Y00534569D01*
X01217205Y00527245D02*
Y00533675D01*
X01205823Y00517745D02*
X01217205D01*
X0120523Y00518339D02*
X01205823Y00517745D01*
X01194959Y00490409D02*
X01195189Y00490179D01*
X01211539Y00501529D02*
X01211769Y00501759D01*
X01216539Y00495179D02*
Y00501529D01*
X01214539Y00493179D02*
X01216539Y00495179D01*
X01222889D02*
X01223119Y00494949D01*
X01214539Y00492659D02*
X01217019Y00490179D01*
X01214539Y00492659D02*
Y00493179D01*
X01217019Y00490179D02*
X01222889D01*
X01214539Y00482179D02*
X01216539Y00480179D01*
Y00473829D02*
Y00480179D01*
G54D17*
X01164904Y00479033D03*
X01159516Y00473645D03*
X01154128Y00468256D03*
X0114874Y00462868D03*
X01143352Y0045748D03*
X01065414Y00513752D03*
X01060026Y00508364D03*
X01054638Y00502975D03*
X0104925Y00497587D03*
G54D18*
X01098281Y00431034D03*
X01082116Y00447199D03*
X01076728Y00452587D03*
X01065952Y00463363D03*
X01060564Y00468752D03*
X01055175Y0047414D03*
X01049787Y00479528D03*
X01044399Y00484916D03*
X0107134Y00457975D03*
X01087504Y00441811D03*
X01092893Y00436423D03*
X01103669Y00425646D03*
G54D19*
X01143865Y00419248D03*
X01150794Y00426178D03*
X01135154Y00428138D03*
X01142084Y00435068D03*
X0105144Y00454232D03*
X0104451Y00447302D03*
X01043197Y00462684D03*
X01036267Y00455754D03*
X01023964Y00524854D03*
X01030894Y00531784D03*
X01015578Y00532942D03*
X01022508Y00539871D03*
G54D20*
X01211844Y00444379D03*
Y00439379D03*
Y00434379D03*
Y00429379D03*
X01165594D03*
Y00434379D03*
Y00439379D03*
Y00444379D03*
G54D21*
X01166219Y00452504D03*
X01171219D03*
X01176219D03*
X01181219D03*
X01186219D03*
X01191219D03*
X01196219D03*
X01201219D03*
X01206219D03*
X01211219D03*
X01206219Y00421254D03*
X01201219D03*
X01196219D03*
X01191219D03*
X01186219D03*
X01181219D03*
X01176219D03*
X01171219D03*
X01166219D03*
X01211219D03*
G54D22*
X01173659Y0046863D03*
X01183459D03*
X01230809Y0045085D03*
X01240609D03*
G54D23*
X01240483Y00440818D03*
X01230983D03*
G54D24*
X01206539Y00473829D03*
Y00501529D03*
X01201539D03*
X01013339D03*
X01008339D03*
X01003339D03*
X00998339D03*
Y00473829D03*
X01003339D03*
X01008339D03*
X01013339D03*
X01201539D03*
X01211539D03*
X01216539D03*
Y00501529D03*
X01211539D03*
G54D25*
X01195189Y00480179D03*
X00991989Y00495179D03*
Y00490179D03*
Y00485179D03*
Y00480179D03*
X01019689D03*
Y00485179D03*
Y00490179D03*
Y00495179D03*
X01222889Y00480179D03*
Y00485179D03*
Y00490179D03*
Y00495179D03*
X01195189D03*
Y00490179D03*
Y00485179D03*
G54D26*
X0096774Y00460829D03*
Y00451029D03*
X009779Y00502739D03*
Y00492939D03*
X0096647Y00502739D03*
Y00492939D03*
X01237147Y00477577D03*
Y00487377D03*
X01248577Y00477577D03*
Y00487377D03*
X0120523Y00552269D03*
Y00542469D03*
Y00518339D03*
Y00528139D03*
G54D27*
X00983151Y00455416D03*
Y00439416D03*
G54D28*
X01062609Y0042418D03*
X01078609D03*
G54D29*
X0103296Y0051734D03*
X01039678Y00524058D03*
X0100756Y0054147D03*
X01014278Y00548188D03*
G54D30*
X0121793Y00552119D03*
Y00542619D03*
X01217205Y00517745D03*
Y00527245D03*
G54D31*
X0100584Y0048768D03*
X0120904D03*
G54D32*
X01060992Y00447088D03*
X01051446Y00437542D03*
G54D33*
X00974088Y00536711D03*
X00984695Y00547317D03*
X00982692Y00527984D03*
X00993299Y00538591D03*
G54D36*
X01267949Y0051308D03*
Y0048768D03*
Y0046228D03*
X00946929D03*
Y0048768D03*
Y0051308D03*
G54D37*
X01253996Y00505998D03*
Y00450998D03*
X01248496Y00527998D03*
X01251246Y00511498D03*
X01248496Y00505998D03*
X01251246Y00500498D03*
Y00445498D03*
X01245747Y00533498D03*
X01242997Y00527998D03*
X01245747Y00511498D03*
X01242997Y00505998D03*
X01245747Y00500498D03*
X01237496Y00538998D03*
X01240246Y00533498D03*
X01237496Y00527998D03*
X01240246Y00511498D03*
X01237496Y00505998D03*
X01240246Y00500498D03*
X01234746Y00544498D03*
X01231997Y00538998D03*
X01234746Y00533498D03*
X01231997Y00527998D03*
X01234746Y00511498D03*
X01231997Y00505998D03*
X01234746Y00500498D03*
X01231997Y00428998D03*
X01226496Y00549998D03*
X01229247Y00544498D03*
X01226496Y00538998D03*
X01229247Y00533498D03*
X01226496Y00527998D03*
X01229247Y00511498D03*
X01226496Y00505998D03*
X01229247Y00500498D03*
Y00423498D03*
X01223746D03*
X01215497Y00560998D03*
X01204497Y00439998D03*
X01198997D03*
X01193497Y00560998D03*
X01196247Y00555498D03*
X01193497Y00549998D03*
X01196247Y00544498D03*
X01193497Y00538998D03*
X01196247Y00533498D03*
X01193497Y00439998D03*
X01187997Y00560998D03*
X01190747Y00555498D03*
X01187997Y00549998D03*
X01190747Y00544498D03*
X01187997Y00439998D03*
X01182497Y00560998D03*
X01185247Y00555498D03*
X01182497Y00549998D03*
X01185247Y00544498D03*
X01176997Y00560998D03*
X01179747Y00555498D03*
X01171497Y00560998D03*
X01174247Y00555498D03*
X01119247Y00456498D03*
X01108247Y00467498D03*
X01097247Y00478498D03*
X01088997Y00483998D03*
X01086247Y00489498D03*
X01077997Y00494998D03*
X01080747Y00489498D03*
X01075247Y00500498D03*
X01072497Y00494998D03*
X01075247Y00489498D03*
X01069747Y00500498D03*
X01066997Y00494998D03*
X01069747Y00489498D03*
X01064247Y00500498D03*
X01061497Y00494998D03*
X01064247Y00489498D03*
X01058747D03*
X01053247D03*
X01044997Y00560998D03*
X01039497D03*
X01033997D03*
X01036747Y00555498D03*
X01033997Y00549998D03*
X01028497Y00560998D03*
X01031247Y00555498D03*
X01022997Y00560998D03*
X01017497D03*
X01011997D03*
X01006497D03*
X01009247Y00555498D03*
X01000997Y00560998D03*
X01003747Y00555498D03*
Y00533498D03*
X00995497Y00560998D03*
X00998247Y00555498D03*
X00984497Y00472998D03*
X00978997D03*
X00976247Y00478498D03*
X00973497Y00472998D03*
X00970747Y00478498D03*
X00967997Y00472998D03*
X00965247Y00478498D03*
X00962497Y00472998D03*
X01251246Y00467498D03*
X01245747D03*
X01240246D03*
X01234746D03*
X01229247D03*
X01223746D03*
X01017497Y00450998D03*
X01011997D03*
X01006497D03*
X01000997D03*
X00995497D03*
X00987247Y00500498D03*
X01044997Y00417998D03*
X01042247Y00423498D03*
X01039497Y00417998D03*
X01036747Y00423498D03*
X01033997Y00417998D03*
X00994515Y00513384D03*
X00992747Y00505998D03*
X01223746Y00472998D03*
X00989015Y00513384D03*
X00983515D03*
X00978015D03*
X00972515D03*
X00967015D03*
X00961515D03*
X00987247Y00505998D03*
X01008459Y0043307D03*
X0101346Y00441069D03*
X01018459Y0043307D03*
X0101346Y00425069D03*
X01011339Y00493179D03*
Y00482179D03*
X01000339Y00493179D03*
Y00482179D03*
X01203539D03*
Y00493179D03*
X01214539Y00482179D03*
Y00493179D03*
G54D38*
X0101346Y0043307D03*
G54D39*
X01027459Y00442569D03*
Y0043307D03*
Y00423569D03*
X00999459D03*
Y0043307D03*
Y00442569D03*
G54D40*
X0109093Y0041529D03*
X01182878Y0050146D03*
X01188087Y00491114D03*
X01182201Y00485228D03*
X01164715Y00467588D03*
X011938Y0047371D03*
X01186561Y00460403D03*
X0111633Y0043688D03*
X01196858Y00467039D03*
X01096579Y00439511D03*
X01104512Y00437266D03*
X0108296Y00457489D03*
X01077017Y00463059D03*
X01093719Y00447802D03*
X01197418Y00507551D03*
X01211565Y00460539D03*
X0112268Y0042418D03*
X01061407Y00480371D03*
X01066795Y00474801D03*
X0103632Y00446549D03*
X00975601Y00525576D03*
X00967229Y00530698D03*
X00989976Y00552209D03*
X00999089Y00544116D03*
X01019381Y00553056D03*
X01166259Y00414784D03*
X01172064Y00429419D03*
X01205189Y00558739D03*
X01224192Y00451264D03*
X01224546Y00431384D03*
X01205173Y00466757D03*
X01206199Y00508718D03*
X01028362Y00478206D03*
X0103251Y00484609D03*
X01044934Y00528661D03*
X0103688Y00537151D03*
X01027955Y00544988D03*
X01017846Y00518842D03*
X01008719Y00526929D03*
X01205189Y00534609D03*
X01217165Y00533715D03*
M02*