%FSTAX44Y44*%
%MOMM*%
%SFA1B1*%

%IPPOS*%
%ADD13C,0.253999*%
%ADD23R,0.699999X0.649999*%
%ADD36R,1.799996X1.799996*%
%ADD37C,0.499999*%
%ADD40C,0.599999*%
%ADD42C,1.599997*%
%ADD43C,1.999996*%
%ADD44C,0.799998*%
%LNpcb1-1*%
%LPD*%
G36*
X01257947Y00527308D02*
X01258542Y0052691D01*
X01259245Y00526771*
X01281617*
Y00448587*
X01258995*
X01258292Y00448448*
X01257697Y0044805*
X01221188Y0041154*
X01170756*
X01170096Y00412811*
X01170559Y00413929*
Y00415378*
X01172544Y00417364*
X01177939*
Y00415434*
X01197039*
Y00424534*
X01194859*
Y00426864*
X01197039*
Y00428779*
X0122107*
X01222111Y00427739*
X01223691Y00427084*
X01225402*
X01226982Y00427739*
X01228192Y00428948*
X01228846Y0043053*
Y00432239*
X01228192Y0043382*
X01226982Y00435029*
X01225402Y00435684*
X01223691*
X01222111Y00435029*
X01221101Y00434019*
X01197039*
Y00435964*
X01177939*
Y00434034*
X01174995*
X01173993Y00433835*
X01173475Y00433489*
X01172919Y00433719*
X01171209*
X01169628Y00433064*
X01168419Y00431855*
X0116825Y00431449*
X01167504Y00431282*
X01166813Y00431297*
X01165219Y00432891*
X01163099Y00434115*
X01160733Y00434749*
X01158285*
X01155919Y00434115*
X0115505Y00433613*
X01143582Y00445082*
X01142732Y0044565*
X0114173Y00445849*
X01125034*
X01094048Y00476836*
X01093198Y00477404*
X01092195Y00477603*
X01070074*
X01069231Y00478446*
X0106765Y00479101*
X0106688*
X01065869Y00479459*
X01065707Y00480274*
Y00481226*
X01065052Y00482807*
X01063843Y00484016*
X01062262Y00484671*
X01060552*
X01058971Y00484016*
X01057762Y00482807*
X01057107Y00481226*
Y00479516*
X01057762Y00477935*
X01058971Y00476726*
X01060552Y00476071*
X01061322*
X01062333Y00475714*
X01062495Y00474898*
Y00473946*
X0106315Y00472365*
X01064359Y00471156*
X0106594Y00470501*
X0106765*
X01069231Y00471156*
X01070438Y00472363*
X0109111*
X01122096Y00441376*
X01122946Y00440808*
X0112395Y00440609*
X01140644*
X01151345Y00429908*
X01150843Y00429039*
X01150209Y00426673*
Y00424225*
X01150843Y00421859*
X01152067Y00419739*
X01153799Y00418007*
X01155919Y00416783*
X01158285Y00416149*
X01160733*
X01160921Y00416199*
X01161959Y00415163*
Y00413929*
X01162422Y00412811*
X01161762Y0041154*
X01108609*
X01107907Y00411401*
X0110744Y00411088*
X01106971Y00411401*
X01106269Y0041154*
X0099344*
X00963062Y00441919*
X00963549Y00443092*
X00965777*
X00965953Y00443165*
X00966141Y0044314*
X00966433Y00443363*
X00966772Y00443504*
X00966845Y0044368*
X00966996Y00443795*
X00967207Y00444162*
X00968674*
X00968766Y00444001*
X0097087Y00441897*
X00973447Y00440409*
X00976321Y00439639*
X00979297*
X0098217Y00440409*
X00984747Y00441897*
X00986253Y00443403*
X00987127Y00443523*
X00987801Y00443288*
X00987826Y0044327*
X00987925Y00442892*
X00987847Y00442791*
X009878Y00442744*
X00996667Y00433877*
X01005534Y0042501*
X01005804Y00425279*
X01007455Y00428138*
X01008309Y00431328*
Y00431749*
Y0043463*
X01007455Y00437819*
X01005804Y00440679*
X0100466Y00441822*
X01005186Y00443092*
X0101181*
X01012068Y00443199*
X01012348*
X01012983Y00443462*
X01013935*
X0101457Y00443199*
X0101485*
X01015108Y00443092*
X0102489*
X01025884Y00443504*
X01026296Y004445*
Y00467722*
X01026293Y00467729*
X01026296Y00467736*
X01026088Y00468225*
X01025884Y00468717*
X01025877Y0046872*
X01025874Y00468727*
X01024967Y00469616*
X0102496Y00469619*
X01024957Y00469626*
X01024543Y00469788*
Y00474148*
X01025813Y00474674*
X01025926Y00474561*
X01027507Y00473906*
X01029218*
X01030798Y00474561*
X01032008Y0047577*
X01032662Y00477351*
Y00479061*
X01032583Y00479253*
X0103314Y00480087*
X01033497Y00480364*
X01034945Y00480964*
X01036155Y00482173*
X01036809Y00483754*
Y00485464*
X01036155Y00487045*
X01034945Y00488254*
X01033365Y00488909*
X01031654*
X01030073Y00488254*
X01028864Y00487045*
X01028209Y00485464*
Y00483754*
X01028289Y00483562*
X01027731Y00482728*
X01027374Y00482451*
X01025926Y00481851*
X01025813Y00481738*
X01024543Y00482264*
Y00499779*
X01024132Y00501847*
X0102296Y005036*
X0101601Y0051055*
X01014257Y00511721*
X0101219Y00512133*
X01005842*
X01005564Y00512804*
X00994134Y00524234*
X0099314Y00524646*
X00979951*
X00979901Y00524721*
Y00526431*
X00979247Y00528012*
X00978037Y00529221*
X00976457Y00529876*
X00974746*
X00973166Y00529221*
X00972279Y00528334*
X00971202Y00529054*
X00971529Y00529844*
Y00531553*
X00970874Y00533134*
X00969664Y00534344*
X00968084Y00534998*
X00966667*
X00966134Y00535853*
X00966045Y00536171*
X0099369Y00563818*
X01051656*
X01052142Y00562644*
X01035888Y0054639*
X01035476Y00545395*
X01035888Y005444*
X01046153Y00534135*
X01046019Y00533701*
X0104553Y00532961*
X01044079*
X01042499Y00532307*
X01041289Y00531097*
X01040634Y00529517*
Y00527806*
X01041289Y00526226*
X01042499Y00525016*
X01044079Y00524361*
X0104579*
X0104737Y00525016*
X0104858Y00526226*
X01049234Y00527806*
Y00529257*
X01049974Y00529745*
X01050408Y0052988*
X01127812Y00452476*
X01128807Y00452064*
X01129801Y00452476*
X01200512Y00523186*
X01200924Y00524182*
X01200512Y00525176*
X01163044Y00562644*
X0116353Y00563818*
X01202895*
X01203147Y00562548*
X01202753Y00562384*
X01201544Y00561175*
X01200889Y00559594*
Y00557884*
X01201544Y00556303*
X01202753Y00555094*
X01204334Y00554439*
X01206044*
X01207625Y00555094*
X01208834Y00556303*
X01209489Y00557884*
Y00559594*
X01208834Y00561175*
X01207625Y00562384*
X01207231Y00562548*
X01207484Y00563818*
X01221438*
X01257947Y00527308*
G37*
G36*
X0100457Y0051181D02*
Y00495982D01*
X01004514Y00495947*
X010033Y00495593*
X01002492Y004964*
X01001095Y00496979*
X00999583*
X00998186Y004964*
X00997118Y00495331*
X00997104Y004953*
X00957229*
Y00497979*
X00955883*
Y00502779*
X00957229*
Y0052324*
X00971915*
X00971956Y0052314*
X00973166Y00521931*
X00974746Y00521276*
X00976457*
X00978037Y00521931*
X00979247Y0052314*
X00979287Y0052324*
X0099314*
X0100457Y0051181*
G37*
G36*
X00962074Y00531793D02*
X00962929Y0053126D01*
Y00529844*
X00963583Y00528263*
X00964793Y00527053*
X00966373Y00526398*
X00968084*
X00969664Y00527053*
X00970552Y0052794*
X00971628Y00527221*
X00971301Y00526431*
Y00524721*
X00971251Y00524646*
X00957229*
X00956234Y00524234*
X0095588Y00523379*
X00936629*
Y00502779*
X00954476*
Y00497979*
X00936629*
Y00477379*
X00957229*
Y00493892*
X00997104*
X00997341Y0049399*
X00997598Y00493982*
X00997617Y00493999*
X00997643*
X0099784Y00494197*
X00998099Y00494304*
X00998112Y00494337*
X00998984Y00495208*
X00999863Y00495572*
X01000815*
X01001694Y00495208*
X01002304Y00494598*
X01002494Y0049452*
X01002622Y0049436*
X01002973Y00494321*
X010033Y00494186*
X01003489Y00494264*
X01003692Y00494242*
X01004907Y00494596*
X01005071Y00494727*
X01005277Y00494765*
X01005332Y004948*
X0100542Y00494928*
X01005564Y00494987*
X01005648Y0049519*
X01005747Y0049527*
X01005764Y00495425*
X01005945Y00495686*
X01005917Y00495839*
X01005976Y00495982*
Y00501325*
X01009951*
X01013735Y00497541*
Y00469818*
X01002842Y00469604*
X01002397Y00469409*
X01002332*
X01002284Y00469362*
X01001875Y00469192*
X01001869Y00469178*
X01001856Y00469173*
X01001702Y00468779*
X0100157Y00468647*
X01001463Y00468389*
X01001381Y00468191*
X01001183Y00468109*
X00988525Y00468102*
X00960118Y00468087*
X00959615Y00467879*
X00959124Y00467675*
X0095892Y00467183*
X00958712Y0046668*
Y00447929*
X00957539Y00447442*
X00956931Y0044805*
X00956336Y00448448*
X00955633Y00448587*
X0093326*
Y00468972*
Y004953*
Y00526771*
X00955883*
X00956586Y0052691*
X00957181Y00527308*
X00961755Y00531882*
X00962074Y00531793*
G37*
G36*
X0102489Y00467722D02*
Y004445D01*
X01015108*
X01014215Y00444869*
X01012703*
X0101181Y004445*
X00989841*
X00989205Y00445599*
X00989494Y00446099*
X00990349Y00449288*
Y0045259*
X00989494Y00455779*
X00987843Y00458639*
X00987574Y00458908*
X00978707Y00450041*
X00977809Y00450939*
X00976911Y00450041*
X00968044Y00458908*
X00967774Y00458639*
X00966123Y00455779*
X00965269Y0045259*
Y00449288*
X00966123Y00446099*
X00966412Y00445599*
X00965777Y004445*
X00960482*
X0096012Y00444862*
Y0046668*
X01001464Y00466702*
X01001967Y00466911*
X01002458Y00467114*
Y00467115*
X01002662Y00467606*
X0100287Y00468109*
Y00468197*
X01023982Y00468611*
X0102489Y00467722*
G37*
%LNpcb1-2*%
%LPC*%
G36*
X01020237Y00557355D02*
X01018526D01*
X01016945Y00556701*
X01015736Y00555491*
X01015081Y00553911*
Y005522*
X01015736Y0055062*
X01016945Y0054941*
X01018526Y00548756*
X01020237*
X01021817Y0054941*
X01023027Y0055062*
X01023681Y005522*
Y00553911*
X01023027Y00555491*
X01021817Y00556701*
X01020237Y00557355*
G37*
G36*
X0121802Y00538015D02*
X0121631D01*
X01214729Y00537361*
X0121352Y00536151*
X01212865Y0053457*
Y0053286*
X0121352Y00531279*
X01214729Y0053007*
X0121631Y00529415*
X0121802*
X01219601Y0053007*
X0122081Y00531279*
X01221465Y0053286*
Y0053457*
X0122081Y00536151*
X01219601Y00537361*
X0121802Y00538015*
G37*
G36*
X01009574Y00531229D02*
X01007864D01*
X01006283Y00530574*
X01005074Y00529365*
X01004419Y00527784*
Y00526074*
X01005074Y00524493*
X01006283Y00523284*
X01007864Y00522629*
X01009574*
X01011155Y00523284*
X01012364Y00524493*
X01013019Y00526074*
Y00527784*
X01012364Y00529365*
X01011155Y00530574*
X01009574Y00531229*
G37*
G36*
X01018701Y00523142D02*
X01016991D01*
X0101541Y00522487*
X01014201Y00521277*
X01013546Y00519697*
Y00517986*
X01014201Y00516406*
X0101541Y00515196*
X01016991Y00514542*
X01018701*
X01020282Y00515196*
X01021491Y00516406*
X01022146Y00517986*
Y00519697*
X01021491Y00521277*
X01020282Y00522487*
X01018701Y00523142*
G37*
G36*
X01207054Y00513018D02*
X01205344D01*
X01203763Y00512364*
X01202554Y00511154*
X01202254Y0051043*
X01201879Y00510291*
X01200803Y00510246*
X01199854Y00511196*
X01198273Y00511851*
X01196562*
X01194982Y00511196*
X01193772Y00509986*
X01193118Y00508406*
Y00506695*
X01193772Y00505115*
X01194982Y00503905*
X01196562Y00503251*
X01198273*
X01199854Y00503905*
X01201063Y00505115*
X01201363Y00505839*
X01201737Y00505978*
X01202814Y00506022*
X01203763Y00505073*
X01205344Y00504418*
X01207054*
X01208635Y00505073*
X01209844Y00506282*
X01210499Y00507863*
Y00509574*
X01209844Y00511154*
X01208635Y00512364*
X01207054Y00513018*
G37*
G36*
X01278249Y00523379D02*
X01257649D01*
Y0052098*
Y00502779*
X01278249*
Y0052098*
Y00523379*
G37*
G36*
Y00497979D02*
X01257649D01*
Y00484287*
X01218339*
X01217344Y00483875*
X01216932Y0048288*
Y00481703*
X01216568Y00480824*
X01215894Y0048015*
X01215015Y00479786*
X01213783*
X01213404Y00479629*
X01213001Y00479549*
X01212788Y00479406*
X01212708Y00479286*
X01212575Y00479231*
X01212417Y00478852*
X01212189Y00478511*
X01212217Y00478369*
X01212162Y00478236*
Y00464363*
X0121227Y00464105*
Y00463825*
X01212467Y00463627*
X01212575Y00463368*
X01212833Y00463261*
X01213031Y00463063*
X01213203Y00462992*
X01214017Y00462178*
X01214458Y00461115*
Y00459964*
X01214017Y00458901*
X01213192Y00458075*
X01213158Y00457994*
X01213082Y00457951*
X01212956Y00457507*
X01212779Y0045708*
X01212813Y00456999*
X01212789Y00456915*
X01212942Y00455617*
X01213168Y00455214*
X01213345Y00454787*
X01213473Y0045466*
X01213925Y00454472*
X01214468Y00454247*
X01214469*
X01219437Y0045425*
X01220248Y0045298*
X01219892Y0045212*
Y00450409*
X01220546Y00448828*
X01221756Y00447619*
X01223336Y00446964*
X01225047*
X01226627Y00447619*
X01227837Y00448828*
X01228492Y00450409*
Y0045212*
X01228134Y00452984*
X01228942Y00454254*
X01256751Y00454269*
X01257649Y00453371*
Y00451979*
X01278249*
Y00472579*
X01260402*
Y00477379*
X01278249*
Y00494686*
Y00497979*
G37*
G36*
X01188942Y00495414D02*
X01187232D01*
X01185651Y0049476*
X01184442Y0049355*
X01183787Y00491969*
Y00490601*
X01183353Y00489963*
X01182715Y00489528*
X01181346*
X01179765Y00488874*
X01178556Y00487664*
X01177901Y00486083*
Y00484373*
X01178556Y00482792*
X01179765Y00481584*
X01181346Y00480928*
X01183056*
X01184637Y00481584*
X01185846Y00482792*
X01186501Y00484373*
Y00485742*
X01186935Y0048638*
X01187573Y00486814*
X01188942*
X01190523Y00487469*
X01191732Y00488678*
X01192387Y00490259*
Y00491969*
X01191732Y0049355*
X01190523Y0049476*
X01188942Y00495414*
G37*
G36*
X0116557Y00471888D02*
X01163859D01*
X01162279Y00471233*
X01161069Y00470024*
X01160415Y00468443*
Y00466733*
X01161069Y00465152*
X01162279Y00463943*
X01163859Y00463288*
X0116557*
X0116715Y00463943*
X0116836Y00465152*
X01169015Y00466733*
Y00468443*
X0116836Y00470024*
X0116715Y00471233*
X0116557Y00471888*
G37*
G36*
X01194654Y00478009D02*
X01192944D01*
X01191363Y00477354*
X01190154Y00476145*
X01189499Y00474564*
Y00472854*
X01190154Y00471273*
X01191363Y00470064*
X01191976Y0046981*
X01192699Y00468236*
X01192558Y00467895*
Y00466184*
X01193212Y00464604*
X01194422Y00463394*
X01196002Y00462739*
X01197713*
X01199293Y00463394*
X01200172Y00464273*
X01201277Y00464312*
X01201692Y00464156*
X01202737Y00463111*
X01204317Y00462457*
X01206028*
X01207608Y00463111*
X01208818Y00464321*
X01209473Y00465901*
Y00467612*
X01208818Y00469192*
X01207608Y00470402*
X01206028Y00471057*
X01204317*
X01202737Y00470402*
X01201858Y00469523*
X01200753Y00469484*
X01200338Y0046964*
X01199293Y00470685*
X0119868Y00470939*
X01197958Y00472513*
X01198099Y00472854*
Y00474564*
X01197444Y00476145*
X01196235Y00477354*
X01194654Y00478009*
G37*
G36*
X01187416Y00464703D02*
X01185706D01*
X01184125Y00464049*
X01182916Y00462839*
X01182261Y00461259*
Y00459548*
X01182916Y00457968*
X01184125Y00456758*
X01185706Y00456103*
X01187416*
X01188997Y00456758*
X01190206Y00457968*
X01190861Y00459548*
Y00461259*
X01190206Y00462839*
X01188997Y00464049*
X01187416Y00464703*
G37*
G36*
X01077873Y0046736D02*
X01076162D01*
X01074582Y00466704*
X01073372Y00465495*
X01072718Y00463914*
Y00462204*
X01073372Y00460623*
X01074582Y00459414*
X01076162Y00458759*
X01077486*
X01078012Y00458573*
X0107866Y0045771*
Y00456634*
X01079314Y00455053*
X01080339Y00454028*
Y00451585*
X01062368Y00433613*
X01061499Y00434115*
X01059133Y00434749*
X01056685*
X01054319Y00434115*
X01052199Y00432891*
X01050467Y00431159*
X01049243Y00429039*
X01048609Y00426673*
Y00424225*
X01049243Y00421859*
X01050467Y00419739*
X01052199Y00418007*
X01054319Y00416783*
X01056685Y00416149*
X01059133*
X01061499Y00416783*
X01063619Y00418007*
X01065351Y00419739*
X01066575Y00421859*
X01067209Y00424225*
Y00426673*
X01066575Y00429039*
X01066073Y00429908*
X01084812Y00448647*
X0108538Y00449497*
X0108558Y00450499*
Y00454028*
X01086605Y00455053*
X0108726Y00456634*
Y00458344*
X01086605Y00459925*
X01085395Y00461134*
X01083815Y00461789*
X01082491*
X01081965Y00461975*
X01081317Y00462838*
Y00463914*
X01080663Y00465495*
X01079453Y00466704*
X01077873Y0046736*
G37*
G36*
X01094574Y00452102D02*
X01092864D01*
X01091283Y00451447*
X01090073Y00450238*
X01089419Y00448657*
Y00446947*
X01090073Y00445366*
X01091283Y00444157*
X01092743Y00443552*
X01093008Y00442986*
X01093219Y00442232*
X01092934Y00441947*
X01092279Y00440366*
Y00438656*
X01092934Y00437075*
X01093805Y00436204*
X01093325Y00434934*
X01093146*
X01092143Y00434735*
X01091293Y00434167*
X01089518Y00432392*
X01089019Y00432891*
X01086899Y00434115*
X01084533Y00434749*
X01082085*
X01079719Y00434115*
X01077599Y00432891*
X01075867Y00431159*
X01074643Y00429039*
X01074009Y00426673*
Y00424225*
X01074643Y00421859*
X01075867Y00419739*
X01077599Y00418007*
X01079719Y00416783*
X01082085Y00416149*
X01084533*
X01086899Y00416783*
X01089019Y00418007*
X01090751Y00419739*
X01091975Y00421859*
X01092609Y00424225*
Y00426673*
X01092314Y00427776*
X01094232Y00429694*
X0109762*
X01098594Y00428424*
X01098169Y00426837*
Y0042672*
X0110871*
Y0042545*
X0110998*
Y00414909*
X01110097*
X01112777Y00415627*
X01115181Y00417015*
X01117143Y00418977*
X0111819Y00420791*
X01119582Y0042108*
X01119743Y00421034*
X01120243Y00420534*
X01121824Y00419879*
X01123534*
X01125115Y00420534*
X01126298Y00420378*
X01126667Y00419739*
X01128399Y00418007*
X01130519Y00416783*
X01132885Y00416149*
X01135333*
X01137699Y00416783*
X01139819Y00418007*
X01141551Y00419739*
X01142775Y00421859*
X01143409Y00424225*
Y00426673*
X01142775Y00429039*
X01141551Y00431159*
X01139819Y00432891*
X01137699Y00434115*
X01135333Y00434749*
X01132885*
X01130519Y00434115*
X01128399Y00432891*
X01126667Y00431159*
X01125443Y00429039*
X01123934Y00428314*
X01123534Y00428479*
X01121824*
X01120294Y00427845*
X01120232Y00427828*
X01118871Y00428248*
X01118531Y00429517*
X0111744Y00431406*
X01117816Y00432728*
X0111796Y004329*
X01118765Y00433234*
X01119974Y00434443*
X01120629Y00436024*
Y00437734*
X01119974Y00439315*
X01118765Y00440524*
X01117184Y00441179*
X01115474*
X01113893Y00440524*
X01112684Y00439315*
X01112029Y00437734*
Y00436786*
X01110858Y00435785*
X01110097Y00435989*
X01109094*
X01108812Y00436411*
Y00438121*
X01108157Y00439702*
X01106948Y00440911*
X01105367Y00441566*
X01103657*
X01102076Y00440911*
X01102042Y00440877*
X01100544Y00441175*
X01100225Y00441947*
X01099015Y00443156*
X01097555Y00443761*
X0109729Y00444327*
X01097079Y00445081*
X01097364Y00445366*
X01098019Y00446947*
Y00448657*
X01097364Y00450238*
X01096155Y00451447*
X01094574Y00452102*
G37*
G36*
X01043003Y00427298D02*
X01041491D01*
X01040094Y0042672*
X01039497Y00426122*
X01038899Y0042672*
X01037503Y00427298*
X01035991*
X01034594Y0042672*
X01033526Y00425651*
X01032947Y00424254*
Y00422742*
X0103215Y00421346*
X01031844Y0042122*
X01030775Y00420151*
X01030197Y00418754*
Y00417242*
X01030775Y00415846*
X01031844Y00414777*
X01033241Y00414198*
X01034753*
X0103615Y00414777*
X01036747Y00415374*
X01037344Y00414777*
X01038741Y00414198*
X01040253*
X01041649Y00414777*
X01042247Y00415374*
X01042844Y00414777*
X01044241Y00414198*
X01045753*
X01047149Y00414777*
X01048218Y00415846*
X01048797Y00417242*
Y00418754*
X01048218Y00420151*
X01047149Y0042122*
X01046843Y00421346*
X01046047Y00422742*
Y00424254*
X01045468Y00425651*
X01044399Y0042672*
X01043003Y00427298*
G37*
G36*
X00986004Y00440948D02*
X00985735Y00440679D01*
X00984084Y00437819*
X00983229Y0043463*
Y00431328*
X00984084Y00428138*
X00985735Y00425279*
X00986004Y0042501*
X00993973Y00432979*
X00986004Y00440948*
G37*
G36*
X00995769Y00431183D02*
X009878Y00423214D01*
X0098807Y00422944*
X00990929Y00421293*
X00994118Y00420439*
X0099742*
X0100061Y00421293*
X01003469Y00422944*
X01003738Y00423214*
X00995769Y00431183*
G37*
G36*
X0110744Y0042418D02*
X01098169D01*
Y00424061*
X01098887Y00421381*
X01100275Y00418977*
X01102237Y00417015*
X01104641Y00415627*
X01107321Y00414909*
X0110744*
Y0042418*
G37*
G36*
X00957229Y00472579D02*
X00936629D01*
Y00451979*
X00957229*
Y00472579*
G37*
G36*
X0097946Y00463479D02*
X00976158D01*
X00972969Y00462625*
X00970109Y00460974*
X0096984Y00460704*
X00977809Y00452735*
X00985778Y00460704*
X00985508Y00460974*
X00982649Y00462625*
X0097946Y00463479*
G37*
%LNpcb1-3*%
%LPD*%
G36*
X01257649Y0048288D02*
Y00477379D01*
X01258995*
Y00472579*
X01257649*
Y00455676*
X01214468Y00455654*
X0121434Y00455782*
X01214186Y0045708*
X0121521Y00458104*
X01215865Y00459684*
Y00461395*
X0121521Y00462975*
X01214Y00464185*
X01213569Y00464363*
Y00478236*
X01213783Y00478379*
X01215295*
X01216692Y00478958*
X01217761Y00480027*
X01218339Y00481423*
Y0048288*
X01257649*
G37*
G54D13*
X01093146Y00432314D02*
X0109956D01*
X01086281Y0042545D02*
X01093146Y00432314D01*
X0108331Y0042545D02*
X01086281D01*
X0109956Y00432314D02*
X01104512Y00437266D01*
X0105791Y0042545D02*
X0108296Y00450499D01*
Y00457489*
X01133475Y00424815D02*
X0113411Y0042545D01*
X01123315Y00424815D02*
X01133475D01*
X0112268Y0042418D02*
X01123315Y00424815D01*
X01066977Y00474983D02*
X01092195D01*
X01066795Y00474801D02*
X01066977Y00474983D01*
X01192239Y00431414D02*
X01192254Y00431399D01*
X01224531*
X01224546Y00431384*
X00992747Y00505998D02*
X01002568D01*
X010033Y0050673*
X0115951Y0042545D02*
D01*
X0114173Y0044323D02*
X0115951Y0042545D01*
X0112395Y0044323D02*
X0114173D01*
X01092195Y00474983D02*
X0112395Y0044323D01*
X01192239Y00419984D02*
Y00431414D01*
X01173Y00429419D02*
X01174995Y00431414D01*
X01182739*
X01166259Y00414784D02*
X01171459Y00419984D01*
X01182739*
G54D23*
X01182739Y00431414D03*
X01192239D03*
X01182739Y00419984D03*
X01192239D03*
G54D36*
X01267949Y0051308D03*
Y0048768D03*
Y0046228D03*
X00946929D03*
Y0048768D03*
Y0051308D03*
G54D37*
X01253996Y00505998D03*
Y00450998D03*
X01248496Y00527998D03*
X01251246Y00511498D03*
X01248496Y00505998D03*
X01251246Y00500498D03*
Y00445498D03*
X01245747Y00533498D03*
X01242997Y00527998D03*
X01245747Y00511498D03*
X01242997Y00505998D03*
X01245747Y00500498D03*
X01237496Y00538998D03*
X01240246Y00533498D03*
X01237496Y00527998D03*
X01240246Y00511498D03*
X01237496Y00505998D03*
X01240246Y00500498D03*
X01234746Y00544498D03*
X01231997Y00538998D03*
X01234746Y00533498D03*
X01231997Y00527998D03*
X01234746Y00511498D03*
X01231997Y00505998D03*
X01234746Y00500498D03*
X01231997Y00428998D03*
X01226496Y00549998D03*
X01229247Y00544498D03*
X01226496Y00538998D03*
X01229247Y00533498D03*
X01226496Y00527998D03*
X01229247Y00511498D03*
X01226496Y00505998D03*
X01229247Y00500498D03*
Y00423498D03*
X01223746D03*
X01215497Y00560998D03*
X01204497Y00439998D03*
X01198997D03*
X01193497Y00560998D03*
X01196247Y00555498D03*
X01193497Y00549998D03*
X01196247Y00544498D03*
X01193497Y00538998D03*
X01196247Y00533498D03*
X01193497Y00439998D03*
X01187997Y00560998D03*
X01190747Y00555498D03*
X01187997Y00549998D03*
X01190747Y00544498D03*
X01187997Y00439998D03*
X01182497Y00560998D03*
X01185247Y00555498D03*
X01182497Y00549998D03*
X01185247Y00544498D03*
X01176997Y00560998D03*
X01179747Y00555498D03*
X01171497Y00560998D03*
X01174247Y00555498D03*
X01119247Y00456498D03*
X01108247Y00467498D03*
X01097247Y00478498D03*
X01088997Y00483998D03*
X01086247Y00489498D03*
X01077997Y00494998D03*
X01080747Y00489498D03*
X01075247Y00500498D03*
X01072497Y00494998D03*
X01075247Y00489498D03*
X01069747Y00500498D03*
X01066997Y00494998D03*
X01069747Y00489498D03*
X01064247Y00500498D03*
X01061497Y00494998D03*
X01064247Y00489498D03*
X01058747D03*
X01053247D03*
X01044997Y00560998D03*
X01039497D03*
X01033997D03*
X01036747Y00555498D03*
X01033997Y00549998D03*
X01028497Y00560998D03*
X01031247Y00555498D03*
X01022997Y00560998D03*
X01017497D03*
X01011997D03*
X01006497D03*
X01009247Y00555498D03*
X01000997Y00560998D03*
X01003747Y00555498D03*
Y00533498D03*
X00995497Y00560998D03*
X00998247Y00555498D03*
X00984497Y00472998D03*
X00978997D03*
X00976247Y00478498D03*
X00973497Y00472998D03*
X00970747Y00478498D03*
X00967997Y00472998D03*
X00965247Y00478498D03*
X00962497Y00472998D03*
X01251246Y00467498D03*
X01245747D03*
X01240246D03*
X01234746D03*
X01229247D03*
X01223746D03*
X01017497Y00450998D03*
X01011997D03*
X01006497D03*
X01000997D03*
X00995497D03*
X00987247Y00500498D03*
X01044997Y00417998D03*
X01042247Y00423498D03*
X01039497Y00417998D03*
X01036747Y00423498D03*
X01033997Y00417998D03*
X00994515Y00513384D03*
X00992747Y00505998D03*
X01223746Y00472998D03*
X00989015Y00513384D03*
X00983515D03*
X00978015D03*
X00972515D03*
X00967015D03*
X00961515D03*
X00987247Y00505998D03*
X01008459Y0043307D03*
X0101346Y00441069D03*
X01018459Y0043307D03*
X0101346Y00425069D03*
X01011339Y00493179D03*
Y00482179D03*
X01000339Y00493179D03*
Y00482179D03*
X01203539D03*
Y00493179D03*
X01214539Y00482179D03*
Y00493179D03*
G54D40*
X0109093Y0041529D03*
X01182878Y0050146D03*
X01188087Y00491114D03*
X01182201Y00485228D03*
X01164715Y00467588D03*
X011938Y0047371D03*
X01186561Y00460403D03*
X0111633Y0043688D03*
X01196858Y00467039D03*
X01096579Y00439511D03*
X01104512Y00437266D03*
X0108296Y00457489D03*
X01077017Y00463059D03*
X01093719Y00447802D03*
X01197418Y00507551D03*
X01211565Y00460539D03*
X0112268Y0042418D03*
X01061407Y00480371D03*
X01066795Y00474801D03*
X0103632Y00446549D03*
X00975601Y00525576D03*
X00967229Y00530698D03*
X00989976Y00552209D03*
X00999089Y00544116D03*
X01019381Y00553056D03*
X01166259Y00414784D03*
X01172064Y00429419D03*
X01205189Y00558739D03*
X01224192Y00451264D03*
X01224546Y00431384D03*
X01205173Y00466757D03*
X01206199Y00508718D03*
X01028362Y00478206D03*
X0103251Y00484609D03*
X01044934Y00528661D03*
X0103688Y00537151D03*
X01027955Y00544988D03*
X01017846Y00518842D03*
X01008719Y00526929D03*
X01205189Y00534609D03*
X01217165Y00533715D03*
G54D42*
X0115951Y0042545D03*
X0113411D03*
X0110871D03*
X0108331D03*
X0105791D03*
G54D43*
X00995769Y00432979D03*
X00977809Y00450939D03*
G54D44*
X01019139Y00466791D02*
Y00499779D01*
X010033Y0050673D02*
X0101219D01*
X01019139Y00499779*
X01003389Y00451041D02*
X01019139Y00466791D01*
X00977911Y00451041D02*
X01003389D01*
X00977809Y00450939D02*
X00977911Y00451041D01*
M02*